<svg width="126" height="113" viewBox="0 0 126 113" fill="none" xmlns="http://www.w3.org/2000/svg">
<g filter="url(#filter0_d)">
<path d="M7.30628 101.393C6.89221 100.98 6.56368 100.489 6.33953 99.9492C6.11537 99.409 6 98.8299 6 98.2451C6 97.6603 6.11537 97.0812 6.33953 96.541C6.56368 96.0008 6.89221 95.5102 7.30628 95.0972L47.8696 54.5338C48.2826 54.1198 48.7733 53.7913 49.3134 53.5671C49.8536 53.343 50.4327 53.2275 51.0175 53.2275C51.6024 53.2275 52.1815 53.343 52.7216 53.5671C53.2618 53.7913 53.7524 54.1198 54.1655 54.5338C54.5795 54.9469 54.9081 55.4375 55.1322 55.9777C55.3564 56.5178 55.4717 57.0969 55.4717 57.6817C55.4717 58.2666 55.3564 58.8457 55.1322 59.3859C54.9081 59.926 54.5795 60.4167 54.1655 60.8297L13.6021 101.393C13.1891 101.807 12.6985 102.136 12.1583 102.36C11.6181 102.584 11.039 102.699 10.4542 102.699C9.86937 102.699 9.29028 102.584 8.75011 102.36C8.20994 102.136 7.71929 101.807 7.30628 101.393Z" fill="#FF4B75"/>
<path d="M23.6522 101.147C23.2381 100.734 22.9096 100.243 22.6855 99.703C22.4613 99.1628 22.3459 98.5838 22.3459 97.9989C22.3459 97.4141 22.4613 96.835 22.6855 96.2948C22.9096 95.7546 23.2381 95.264 23.6522 94.851L53.3434 65.1598C53.7564 64.7457 54.247 64.4172 54.7872 64.193C55.3274 63.9689 55.9065 63.8535 56.4913 63.8535C57.0761 63.8535 57.6552 63.9689 58.1954 64.193C58.7356 64.4172 59.2262 64.7457 59.6392 65.1598C60.0533 65.5728 60.3818 66.0635 60.606 66.6036C60.8301 67.1438 60.9455 67.7229 60.9455 68.3077C60.9455 68.8926 60.8301 69.4717 60.606 70.0118C60.3818 70.552 60.0533 71.0427 59.6392 71.4557L29.9481 101.147C29.535 101.561 29.0444 101.889 28.5042 102.114C27.9641 102.338 27.385 102.453 26.8001 102.453C26.2153 102.453 25.6362 102.338 25.096 102.114C24.5559 101.889 24.0652 101.561 23.6522 101.147Z" fill="#FF4B75"/>
<path d="M38.9705 101.591C38.5564 101.178 38.2279 100.688 38.0037 100.148C37.7796 99.6074 37.6642 99.0283 37.6642 98.4435C37.6642 97.8587 37.7796 97.2796 38.0037 96.7394C38.2279 96.1993 38.5564 95.7086 38.9705 95.2956L59.3172 74.9488C59.7302 74.5348 60.2209 74.2063 60.7611 73.9821C61.3012 73.758 61.8803 73.6426 62.4652 73.6426C63.05 73.6426 63.6291 73.758 64.1693 73.9821C64.7094 74.2063 65.2001 74.5348 65.6131 74.9488C66.0272 75.3618 66.3557 75.8525 66.5798 76.3927C66.804 76.9328 66.9194 77.5119 66.9194 78.0967C66.9194 78.6816 66.804 79.2607 66.5798 79.8009C66.3557 80.341 66.0272 80.8317 65.6131 81.2447L45.2663 101.591C44.8533 102.006 44.3627 102.334 43.8225 102.558C43.2823 102.782 42.7033 102.898 42.1184 102.898C41.5336 102.898 40.9545 102.782 40.4143 102.558C39.8742 102.334 39.3835 102.006 38.9705 101.591Z" fill="#FF4B75"/>
<path d="M55.2411 101.413C54.827 101 54.4985 100.51 54.2743 99.9695C54.0502 99.4293 53.9348 98.8502 53.9348 98.2654C53.9348 97.6805 54.0502 97.1015 54.2743 96.5613C54.4985 96.0211 54.827 95.5305 55.2411 95.1175L66.1406 84.2179C66.5536 83.8038 67.0443 83.4753 67.5845 83.2511C68.1246 83.027 68.7037 82.9116 69.2885 82.9116C69.8734 82.9116 70.4525 83.027 70.9926 83.2511C71.5328 83.4753 72.0235 83.8038 72.4365 84.2179C72.8505 84.6309 73.1791 85.1215 73.4032 85.6617C73.6274 86.2019 73.7427 86.781 73.7427 87.3658C73.7427 87.9507 73.6274 88.5297 73.4032 89.0699C73.1791 89.6101 72.8505 90.1007 72.4365 90.5137L61.5369 101.413C61.1239 101.827 60.6333 102.156 60.0931 102.38C59.5529 102.604 58.9738 102.72 58.389 102.72C57.8042 102.72 57.2251 102.604 56.6849 102.38C56.1447 102.156 55.6541 101.827 55.2411 101.413Z" fill="#FF4B75"/>
</g>
<path d="M60.3173 59.1087C66.3928 71.5525 75.6775 83.955 86.5942 92.4637C91.7919 96.5155 98.7726 100.066 105.211 101.453C111.65 102.84 117.321 101.632 122.354 97.3327C124.309 95.6708 126.976 93.3977 125.639 89.5107C125.157 87.9949 124.447 86.5614 123.534 85.2598C120.262 80.8325 116.614 76.6967 112.631 72.8985C111.668 72.0158 110.506 71.3796 109.244 71.0443C107.248 70.6048 105.211 71.731 103.573 72.9191C100.425 75.2814 98.7725 77.946 94.9119 77.0395C92.8085 76.4875 90.7899 75.6512 88.9119 74.5535C78.0569 67.4114 72.0226 56.2725 69.8283 43.403C69.0945 39.1246 67.6682 34.7707 70.9597 31.9413C72.6804 30.5096 74.6459 29.4021 76.7609 28.6724C78.9415 27.8415 81.5609 26.674 82.2467 24.449C82.857 22.5536 82.2055 19.3053 81.5267 17.4374C80.0729 13.4268 79.3255 9.63599 77.5769 5.76277C77.0558 4.59532 76.1438 2.02005 75.1769 1.18223C73.7712 -0.0332987 71.2409 -0.0951087 69.3826 0.0628415C63.3825 0.591631 58.411 3.04328 55.531 8.33805C52.651 13.6328 51.595 22.6497 52.1367 28.6587C52.9275 35.668 54.3037 42.5986 56.251 49.3776C57.4373 53.3401 58.0339 54.4252 60.3173 59.1087Z" fill="#092C4C"/>
<defs>
<filter id="filter0_d" x="0" y="51.2275" width="79.7427" height="61.6702" filterUnits="userSpaceOnUse" color-interpolation-filters="sRGB">
<feFlood flood-opacity="0" result="BackgroundImageFix"/>
<feColorMatrix in="SourceAlpha" type="matrix" values="0 0 0 0 0 0 0 0 0 0 0 0 0 0 0 0 0 0 127 0"/>
<feOffset dy="4"/>
<feGaussianBlur stdDeviation="3"/>
<feColorMatrix type="matrix" values="0 0 0 0 0 0 0 0 0 0 0 0 0 0 0 0 0 0 0.1 0"/>
<feBlend mode="normal" in2="BackgroundImageFix" result="effect1_dropShadow"/>
<feBlend mode="normal" in="SourceGraphic" in2="effect1_dropShadow" result="shape"/>
</filter>
</defs>
</svg>
