<svg width="158" height="48" viewBox="0 0 158 48" fill="none" xmlns="http://www.w3.org/2000/svg">
<g clip-path="url(#clip0)">
<path d="M0.545038 42.3205C0.37227 42.1482 0.235192 41.9432 0.141666 41.7179C0.0481396 41.4924 0 41.2507 0 41.0066C0 40.7625 0.0481396 40.5208 0.141666 40.2954C0.235192 40.0699 0.37227 39.8651 0.545038 39.6927L17.4699 22.7619C17.6422 22.5891 17.8469 22.452 18.0723 22.3584C18.2977 22.2649 18.5393 22.2167 18.7833 22.2167C19.0274 22.2167 19.269 22.2649 19.4943 22.3584C19.7197 22.452 19.9244 22.5891 20.0968 22.7619C20.2695 22.9343 20.4066 23.1391 20.5001 23.3646C20.5937 23.59 20.6418 23.8317 20.6418 24.0758C20.6418 24.32 20.5937 24.5617 20.5001 24.7871C20.4066 25.0126 20.2695 25.2174 20.0968 25.3898L3.17195 42.3205C2.99962 42.4933 2.7949 42.6307 2.56952 42.7242C2.34413 42.8177 2.10251 42.8657 1.85849 42.8657C1.61447 42.8657 1.37285 42.8177 1.14747 42.7242C0.922085 42.6307 0.717364 42.4933 0.545038 42.3205Z" fill="#FF4B75"/>
<path d="M7.36536 42.2179C7.19258 42.0455 7.05551 41.8406 6.96201 41.6152C6.86846 41.3897 6.82031 41.148 6.82031 40.9039C6.82031 40.6598 6.86846 40.4181 6.96201 40.1926C7.05551 39.9672 7.19258 39.7624 7.36536 39.59L19.7539 27.1972C19.9262 27.0243 20.1309 26.8872 20.3563 26.7936C20.5817 26.7001 20.8233 26.6519 21.0673 26.6519C21.3113 26.6519 21.5529 26.7001 21.7783 26.7936C22.0037 26.8872 22.2084 27.0243 22.3807 27.1972C22.5535 27.3695 22.6906 27.5744 22.7841 27.7998C22.8776 28.0253 22.9258 28.267 22.9258 28.5111C22.9258 28.7552 22.8776 28.9969 22.7841 29.2223C22.6906 29.4478 22.5535 29.6526 22.3807 29.825L9.99229 42.2179C9.81993 42.3907 9.61523 42.5276 9.38983 42.6215C9.16448 42.715 8.92285 42.763 8.6788 42.763C8.4348 42.763 8.19317 42.715 7.96778 42.6215C7.74242 42.5276 7.53768 42.3907 7.36536 42.2179Z" fill="#FF4B75"/>
<path d="M13.7567 42.4032C13.5839 42.2308 13.4469 42.0263 13.3534 41.8009C13.2598 41.5753 13.2117 41.3336 13.2117 41.0895C13.2117 40.8454 13.2598 40.6037 13.3534 40.3782C13.4469 40.1528 13.5839 39.9479 13.7567 39.7756L22.2463 31.283C22.4186 31.1102 22.6233 30.9731 22.8487 30.8795C23.0741 30.786 23.3157 30.7378 23.5598 30.7378C23.8038 30.7378 24.0454 30.786 24.2708 30.8795C24.4961 30.9731 24.7009 31.1102 24.8732 31.283C25.046 31.4554 25.1831 31.6602 25.2766 31.8857C25.3701 32.1111 25.4183 32.3528 25.4183 32.5969C25.4183 32.841 25.3701 33.0827 25.2766 33.3082C25.1831 33.5336 25.046 33.7385 24.8732 33.9108L16.3836 42.4032C16.2113 42.5764 16.0066 42.7133 15.7812 42.8068C15.5558 42.9003 15.3142 42.9487 15.0702 42.9487C14.8262 42.9487 14.5845 42.9003 14.3591 42.8068C14.1338 42.7133 13.929 42.5764 13.7567 42.4032Z" fill="#FF4B75"/>
<path d="M20.5455 42.3289C20.3728 42.1565 20.2356 41.952 20.1421 41.7264C20.0486 41.5009 20.0005 41.2592 20.0005 41.0151C20.0005 40.771 20.0486 40.5293 20.1421 40.3038C20.2356 40.0783 20.3728 39.8736 20.5455 39.7012L25.0933 35.1518C25.2656 34.979 25.4704 34.8419 25.6957 34.7483C25.9211 34.6547 26.1627 34.6066 26.4067 34.6066C26.6508 34.6066 26.8924 34.6547 27.1178 34.7483C27.3432 34.8419 27.5479 34.979 27.7202 35.1518C27.893 35.3242 28.03 35.529 28.1236 35.7544C28.2171 35.9799 28.2652 36.2216 28.2652 36.4657C28.2652 36.7098 28.2171 36.9515 28.1236 37.177C28.03 37.4025 27.893 37.6072 27.7202 37.7796L23.1724 42.3289C23.0001 42.5017 22.7954 42.639 22.57 42.7325C22.3446 42.826 22.103 42.8744 21.859 42.8744C21.6149 42.8744 21.3733 42.826 21.148 42.7325C20.9226 42.639 20.7179 42.5017 20.5455 42.3289Z" fill="#FF4B75"/>
<path d="M22.6636 24.6715C25.1985 29.8654 29.0725 35.0421 33.6275 38.5935C35.7962 40.2847 38.7088 41.7667 41.3954 42.3456C44.0819 42.9245 46.448 42.4203 48.548 40.6258C49.3637 39.9321 50.4765 38.9834 49.9187 37.361C49.7176 36.7283 49.4213 36.13 49.0404 35.5867C47.6752 33.7388 46.1531 32.0125 44.4912 30.4272C44.0894 30.0588 43.6045 29.7932 43.078 29.6533C42.2451 29.4698 41.3954 29.9399 40.7116 30.4358C39.3983 31.4218 38.7088 32.534 37.098 32.1556C36.2203 31.9252 35.3781 31.5762 34.5945 31.118C30.0653 28.1369 27.5475 23.4877 26.632 18.116C26.3258 16.3303 25.7307 14.513 27.1041 13.332C27.822 12.7344 28.6421 12.2722 29.5246 11.9676C30.4344 11.6208 31.5273 11.1335 31.8135 10.2048C32.0681 9.41368 31.7963 8.05786 31.5131 7.27822C30.9065 5.60423 30.5946 4.02198 29.865 2.40533C29.6476 1.91805 29.2671 0.843151 28.8637 0.493453C28.2771 -0.0138986 27.2214 -0.0396975 26.446 0.0262295C23.9425 0.246942 21.8682 1.27024 20.6665 3.48023C19.4648 5.69021 19.0242 9.45379 19.2503 11.9619C19.5802 14.8875 20.1544 17.7803 20.9669 20.6098C21.4619 22.2637 21.7108 22.7166 22.6636 24.6715Z" fill="white"/>
<path d="M65.8646 25.4406C66.3853 25.4406 66.8159 25.6109 67.1564 25.9515C67.4968 26.2921 67.6671 26.7329 67.6671 27.2738V39.9859C67.6671 40.5068 67.4968 40.9475 67.1564 41.3082C66.8159 41.6488 66.3853 41.8189 65.8646 41.8189C65.3439 41.8189 64.9133 41.6488 64.5728 41.3082C64.2323 40.9475 64.0621 40.5068 64.0621 39.9859V38.5133L64.723 38.7838C64.723 39.0442 64.5828 39.3648 64.3024 39.7455C64.022 40.1061 63.6415 40.4667 63.1608 40.8273C62.6802 41.188 62.1094 41.4985 61.4485 41.7588C60.8076 41.9992 60.1066 42.1194 59.3456 42.1194C57.9636 42.1194 56.7119 41.7688 55.5904 41.0678C54.4688 40.3465 53.5776 39.3648 52.9167 38.1226C52.2758 36.8604 51.9553 35.4179 51.9553 33.7951C51.9553 32.1523 52.2758 30.7098 52.9167 29.4676C53.5776 28.2054 54.4588 27.2237 55.5603 26.5225C56.6618 25.8012 57.8835 25.4406 59.2254 25.4406C60.0866 25.4406 60.8777 25.5708 61.5987 25.8313C62.3197 26.0918 62.9405 26.4223 63.4613 26.823C64.002 27.2237 64.4126 27.6344 64.693 28.0552C64.9934 28.4559 65.1436 28.7964 65.1436 29.0769L64.0621 29.4676V27.2738C64.0621 26.7529 64.2323 26.3221 64.5728 25.9816C64.9133 25.6209 65.3439 25.4406 65.8646 25.4406ZM59.7962 38.8138C60.6774 38.8138 61.4485 38.5935 62.1094 38.1527C62.7703 37.7119 63.281 37.1109 63.6415 36.3496C64.022 35.5882 64.2123 34.7368 64.2123 33.7951C64.2123 32.8335 64.022 31.972 63.6415 31.2106C63.281 30.4493 62.7703 29.8483 62.1094 29.4075C61.4485 28.9667 60.6774 28.7464 59.7962 28.7464C58.935 28.7464 58.1739 28.9667 57.513 29.4075C56.8521 29.8483 56.3314 30.4493 55.9509 31.2106C55.5904 31.972 55.4101 32.8335 55.4101 33.7951C55.4101 34.7368 55.5904 35.5882 55.9509 36.3496C56.3314 37.1109 56.8521 37.7119 57.513 38.1527C58.1739 38.5935 58.935 38.8138 59.7962 38.8138ZM75.4792 39.9859C75.4792 40.5068 75.2989 40.9475 74.9384 41.3082C74.5979 41.6488 74.1673 41.8189 73.6466 41.8189C73.1459 41.8189 72.7253 41.6488 72.3849 41.3082C72.0444 40.9475 71.8742 40.5068 71.8742 39.9859V21.4136C71.8742 20.8927 72.0444 20.462 72.3849 20.1214C72.7454 19.7608 73.186 19.5804 73.7067 19.5804C74.2274 19.5804 74.648 19.7608 74.9684 20.1214C75.3089 20.462 75.4792 20.8927 75.4792 21.4136V39.9859ZM83.5766 39.9859C83.5766 40.5068 83.3964 40.9475 83.0359 41.3082C82.6954 41.6488 82.2648 41.8189 81.7441 41.8189C81.2434 41.8189 80.8228 41.6488 80.4823 41.3082C80.1419 40.9475 79.9716 40.5068 79.9716 39.9859V21.4136C79.9716 20.8927 80.1419 20.462 80.4823 20.1214C80.8428 19.7608 81.2834 19.5804 81.8042 19.5804C82.3249 19.5804 82.7455 19.7608 83.0659 20.1214C83.4064 20.462 83.5766 20.8927 83.5766 21.4136V39.9859Z" fill="white"/>
<path d="M94.2873 25.4405C95.1285 25.4405 95.8996 25.5707 96.6006 25.8312C97.3015 26.0916 97.9024 26.4222 98.403 26.8229C98.9238 27.2236 99.3243 27.6343 99.6047 28.055C99.9051 28.4557 100.055 28.7963 100.055 29.0768L99.2743 29.4675V27.2737C99.2743 26.7528 99.4445 26.322 99.785 25.9814C100.125 25.6208 100.556 25.4405 101.077 25.4405C101.597 25.4405 102.028 25.6108 102.369 25.9514C102.709 26.292 102.879 26.7327 102.879 27.2737V40.6469C102.879 42.3898 102.499 43.7822 101.738 44.824C100.997 45.8858 100.015 46.6471 98.7936 47.1079C97.5719 47.5888 96.2601 47.8292 94.8581 47.8292C94.4576 47.8292 93.9369 47.7791 93.296 47.6789C92.6551 47.5788 92.0442 47.4586 91.4634 47.3183C90.8826 47.1781 90.442 47.0478 90.1416 46.9276C89.5408 46.6672 89.1202 46.3366 88.8799 45.9359C88.6596 45.5552 88.6195 45.1445 88.7597 44.7038C88.9399 44.1228 89.2303 43.7221 89.6309 43.5017C90.0314 43.3013 90.452 43.2813 90.8926 43.4416C91.0929 43.5017 91.4234 43.6219 91.884 43.8022C92.3447 43.9825 92.8453 44.1428 93.3861 44.283C93.9469 44.4433 94.4376 44.5235 94.8581 44.5235C96.3602 44.5235 97.4718 44.2229 98.1928 43.6219C98.9138 43.0208 99.2743 42.1894 99.2743 41.1277V38.5132L99.6348 38.7837C99.6348 39.0441 99.4946 39.3647 99.2142 39.7453C98.9538 40.106 98.5833 40.4666 98.1026 40.8272C97.642 41.1878 97.0912 41.4984 96.4503 41.7587C95.8095 41.9991 95.1285 42.1193 94.4075 42.1193C92.9855 42.1193 91.7038 41.7687 90.5622 41.0676C89.4206 40.3464 88.5194 39.3647 87.8584 38.1225C87.1975 36.8603 86.8671 35.4178 86.8671 33.795C86.8671 32.1521 87.1975 30.7096 87.8584 29.4675C88.5194 28.2053 89.4106 27.2236 90.5321 26.5224C91.6537 25.8011 92.9054 25.4405 94.2873 25.4405ZM94.8581 28.7462C93.9569 28.7462 93.1658 28.9666 92.4849 29.4074C91.8039 29.8481 91.2732 30.4492 90.8926 31.2105C90.5121 31.9718 90.3219 32.8333 90.3219 33.795C90.3219 34.7366 90.5121 35.5881 90.8926 36.3494C91.2732 37.1108 91.8039 37.7118 92.4849 38.1526C93.1658 38.5933 93.9569 38.8137 94.8581 38.8137C95.7794 38.8137 96.5805 38.5933 97.2615 38.1526C97.9424 37.7118 98.4731 37.1108 98.8537 36.3494C99.2342 35.5881 99.4245 34.7366 99.4245 33.795C99.4245 32.8333 99.2342 31.9718 98.8537 31.2105C98.4731 30.4492 97.9424 29.8481 97.2615 29.4074C96.5805 28.9666 95.7794 28.7462 94.8581 28.7462ZM118.471 25.741C118.992 25.741 119.422 25.9213 119.763 26.282C120.103 26.6225 120.273 27.0533 120.273 27.5742V35.2074C120.273 37.3311 119.683 39.0141 118.501 40.2562C117.319 41.4984 115.617 42.1193 113.394 42.1193C111.171 42.1193 109.468 41.4984 108.287 40.2562C107.125 39.0141 106.544 37.3311 106.544 35.2074V27.5742C106.544 27.0533 106.715 26.6225 107.055 26.282C107.396 25.9213 107.826 25.741 108.347 25.741C108.868 25.741 109.298 25.9213 109.639 26.282C109.979 26.6225 110.149 27.0533 110.149 27.5742V35.2074C110.149 36.4296 110.42 37.3412 110.96 37.9422C111.501 38.5232 112.312 38.8137 113.394 38.8137C114.495 38.8137 115.316 38.5232 115.857 37.9422C116.398 37.3412 116.668 36.4296 116.668 35.2074V27.5742C116.668 27.0533 116.839 26.6225 117.179 26.282C117.52 25.9213 117.95 25.741 118.471 25.741ZM125.979 41.8188C125.458 41.8188 125.027 41.6486 124.687 41.308C124.347 40.9474 124.176 40.5066 124.176 39.9857V27.5742C124.176 27.0533 124.347 26.6225 124.687 26.282C125.027 25.9213 125.458 25.741 125.979 25.741C126.499 25.741 126.93 25.9213 127.271 26.282C127.611 26.6225 127.781 27.0533 127.781 27.5742V30.3991L127.571 28.3856C127.791 27.9048 128.072 27.484 128.412 27.1234C128.773 26.7428 129.173 26.4322 129.614 26.1918C130.054 25.9313 130.525 25.741 131.026 25.6208C131.526 25.5006 132.027 25.4405 132.528 25.4405C133.129 25.4405 133.629 25.6108 134.03 25.9514C134.451 26.292 134.661 26.6927 134.661 27.1535C134.661 27.8146 134.491 28.2954 134.15 28.596C133.81 28.8765 133.439 29.0167 133.039 29.0167C132.658 29.0167 132.308 28.9466 131.987 28.8063C131.687 28.6661 131.336 28.596 130.936 28.596C130.575 28.596 130.205 28.6861 129.824 28.8664C129.464 29.0267 129.123 29.2872 128.803 29.6478C128.502 30.0084 128.252 30.4592 128.052 31.0001C127.871 31.521 127.781 32.1421 127.781 32.8634V39.9857C127.781 40.5066 127.611 40.9474 127.271 41.308C126.93 41.6486 126.499 41.8188 125.979 41.8188ZM149.128 25.741C149.649 25.741 150.08 25.9213 150.42 26.282C150.761 26.6225 150.931 27.0533 150.931 27.5742V35.2074C150.931 37.3311 150.34 39.0141 149.158 40.2562C147.977 41.4984 146.274 42.1193 144.051 42.1193C141.828 42.1193 140.126 41.4984 138.944 40.2562C137.783 39.0141 137.202 37.3311 137.202 35.2074V27.5742C137.202 27.0533 137.372 26.6225 137.713 26.282C138.053 25.9213 138.484 25.741 139.004 25.741C139.525 25.741 139.956 25.9213 140.296 26.282C140.637 26.6225 140.807 27.0533 140.807 27.5742V35.2074C140.807 36.4296 141.077 37.3412 141.618 37.9422C142.159 38.5232 142.97 38.8137 144.051 38.8137C145.153 38.8137 145.974 38.5232 146.515 37.9422C147.055 37.3412 147.326 36.4296 147.326 35.2074V27.5742C147.326 27.0533 147.496 26.6225 147.837 26.282C148.177 25.9213 148.608 25.741 149.128 25.741Z" fill="#FF4B75"/>
</g>
<defs>
<clipPath id="clip0">
<rect width="157.301" height="48" fill="white"/>
</clipPath>
</defs>
</svg>
