<svg width="383" height="113" viewBox="0 0 383 113" fill="none" xmlns="http://www.w3.org/2000/svg">
<g filter="url(#filter0_d)">
<path d="M7.30628 101.393C6.89221 100.98 6.56368 100.489 6.33953 99.9492C6.11537 99.409 6 98.8299 6 98.2451C6 97.6603 6.11537 97.0812 6.33953 96.541C6.56368 96.0008 6.89221 95.5102 7.30628 95.0972L47.8696 54.5338C48.2826 54.1198 48.7733 53.7913 49.3134 53.5671C49.8536 53.343 50.4327 53.2275 51.0175 53.2275C51.6024 53.2275 52.1815 53.343 52.7216 53.5671C53.2618 53.7913 53.7524 54.1198 54.1655 54.5338C54.5795 54.9469 54.9081 55.4375 55.1322 55.9777C55.3564 56.5178 55.4717 57.0969 55.4717 57.6817C55.4717 58.2666 55.3564 58.8457 55.1322 59.3859C54.9081 59.926 54.5795 60.4167 54.1655 60.8297L13.6021 101.393C13.1891 101.807 12.6985 102.136 12.1583 102.36C11.6181 102.584 11.039 102.699 10.4542 102.699C9.86937 102.699 9.29028 102.584 8.75011 102.36C8.20994 102.136 7.71929 101.807 7.30628 101.393Z" fill="#FF4B75"/>
<path d="M23.6522 101.147C23.2381 100.734 22.9096 100.243 22.6855 99.703C22.4613 99.1628 22.3459 98.5838 22.3459 97.9989C22.3459 97.4141 22.4613 96.835 22.6855 96.2948C22.9096 95.7546 23.2381 95.264 23.6522 94.851L53.3434 65.1598C53.7564 64.7457 54.247 64.4172 54.7872 64.193C55.3274 63.9689 55.9065 63.8535 56.4913 63.8535C57.0761 63.8535 57.6552 63.9689 58.1954 64.193C58.7356 64.4172 59.2262 64.7457 59.6392 65.1598C60.0533 65.5728 60.3818 66.0635 60.606 66.6036C60.8301 67.1438 60.9455 67.7229 60.9455 68.3077C60.9455 68.8926 60.8301 69.4717 60.606 70.0118C60.3818 70.552 60.0533 71.0427 59.6392 71.4557L29.9481 101.147C29.535 101.561 29.0444 101.889 28.5042 102.114C27.9641 102.338 27.385 102.453 26.8001 102.453C26.2153 102.453 25.6362 102.338 25.096 102.114C24.5559 101.889 24.0652 101.561 23.6522 101.147Z" fill="#FF4B75"/>
<path d="M38.9705 101.591C38.5564 101.178 38.2279 100.688 38.0037 100.148C37.7796 99.6074 37.6642 99.0283 37.6642 98.4435C37.6642 97.8587 37.7796 97.2796 38.0037 96.7394C38.2279 96.1993 38.5564 95.7086 38.9705 95.2956L59.3172 74.9488C59.7302 74.5348 60.2209 74.2063 60.7611 73.9821C61.3012 73.758 61.8803 73.6426 62.4652 73.6426C63.05 73.6426 63.6291 73.758 64.1693 73.9821C64.7094 74.2063 65.2001 74.5348 65.6131 74.9488C66.0272 75.3618 66.3557 75.8525 66.5798 76.3927C66.804 76.9328 66.9194 77.5119 66.9194 78.0967C66.9194 78.6816 66.804 79.2607 66.5798 79.8009C66.3557 80.341 66.0272 80.8317 65.6131 81.2447L45.2663 101.591C44.8533 102.006 44.3627 102.334 43.8225 102.558C43.2823 102.782 42.7033 102.898 42.1184 102.898C41.5336 102.898 40.9545 102.782 40.4143 102.558C39.8742 102.334 39.3835 102.006 38.9705 101.591Z" fill="#FF4B75"/>
<path d="M55.2411 101.413C54.827 101 54.4985 100.51 54.2743 99.9695C54.0502 99.4293 53.9348 98.8502 53.9348 98.2654C53.9348 97.6805 54.0502 97.1015 54.2743 96.5613C54.4985 96.0211 54.827 95.5305 55.2411 95.1175L66.1406 84.2179C66.5536 83.8038 67.0443 83.4753 67.5845 83.2511C68.1246 83.027 68.7037 82.9116 69.2885 82.9116C69.8734 82.9116 70.4525 83.027 70.9926 83.2511C71.5328 83.4753 72.0235 83.8038 72.4365 84.2179C72.8505 84.6309 73.1791 85.1215 73.4032 85.6617C73.6274 86.2019 73.7427 86.781 73.7427 87.3658C73.7427 87.9507 73.6274 88.5297 73.4032 89.0699C73.1791 89.6101 72.8505 90.1007 72.4365 90.5137L61.5369 101.413C61.1239 101.827 60.6333 102.156 60.0931 102.38C59.5529 102.604 58.9738 102.72 58.389 102.72C57.8042 102.72 57.2251 102.604 56.6849 102.38C56.1447 102.156 55.6541 101.827 55.2411 101.413Z" fill="#FF4B75"/>
</g>
<path d="M60.3173 59.1087C66.3928 71.5525 75.6775 83.955 86.5942 92.4637C91.7919 96.5155 98.7726 100.066 105.211 101.453C111.65 102.84 117.321 101.632 122.354 97.3327C124.309 95.6708 126.976 93.3977 125.639 89.5107C125.157 87.9949 124.447 86.5614 123.534 85.2598C120.262 80.8325 116.614 76.6967 112.631 72.8985C111.668 72.0158 110.506 71.3796 109.244 71.0443C107.248 70.6048 105.211 71.731 103.573 72.9191C100.425 75.2814 98.7725 77.946 94.9119 77.0395C92.8085 76.4875 90.7899 75.6512 88.9119 74.5535C78.0569 67.4114 72.0226 56.2725 69.8283 43.403C69.0945 39.1246 67.6682 34.7707 70.9597 31.9413C72.6804 30.5096 74.6459 29.4021 76.7609 28.6724C78.9415 27.8415 81.5609 26.674 82.2467 24.449C82.857 22.5536 82.2055 19.3053 81.5267 17.4374C80.0729 13.4268 79.3255 9.63599 77.5769 5.76277C77.0558 4.59532 76.1438 2.02005 75.1769 1.18223C73.7712 -0.0332987 71.2409 -0.0951087 69.3826 0.0628415C63.3825 0.591631 58.411 3.04328 55.531 8.33805C52.651 13.6328 51.595 22.6497 52.1367 28.6587C52.9275 35.668 54.3037 42.5986 56.251 49.3776C57.4373 53.3401 58.0339 54.4252 60.3173 59.1087Z" fill="#092C4C"/>
<path d="M166.088 101.191V78.7994C166.088 73.5674 164.72 69.4874 161.984 66.5594C159.248 63.6314 154.88 62.1674 148.88 62.1674C145.616 62.1674 142.832 62.4554 140.528 63.0314C138.224 63.6074 136.016 64.3514 133.904 65.2634L136.64 73.6154C138.416 72.9434 140.096 72.4394 141.68 72.1034C143.312 71.7194 145.184 71.5274 147.296 71.5274C150.032 71.5274 152.096 72.1274 153.488 73.3274C154.88 74.5274 155.576 76.2794 155.576 78.5834V79.2314C154.184 78.7514 152.744 78.3674 151.256 78.0794C149.816 77.7914 148.112 77.6474 146.144 77.6474C143.84 77.6474 141.728 77.9114 139.808 78.4394C137.936 78.9194 136.304 79.6634 134.912 80.6714C133.568 81.6794 132.512 82.9514 131.744 84.4874C130.976 86.0234 130.592 87.8474 130.592 89.9594V90.1034C130.592 92.0234 130.928 93.7274 131.6 95.2154C132.32 96.6554 133.28 97.8794 134.48 98.8874C135.68 99.8954 137.072 100.663 138.656 101.191C140.288 101.671 142.016 101.911 143.84 101.911C146.528 101.911 148.808 101.479 150.68 100.615C152.552 99.7034 154.16 98.5034 155.504 97.0154V101.191H166.088ZM155.72 87.5834C155.72 89.5994 154.928 91.2314 153.344 92.4794C151.808 93.7274 149.744 94.3514 147.152 94.3514C145.376 94.3514 143.936 93.9434 142.832 93.1274C141.728 92.3114 141.176 91.1594 141.176 89.6714V89.5274C141.176 87.7994 141.848 86.4794 143.192 85.5674C144.536 84.6554 146.384 84.1994 148.736 84.1994C150.08 84.1994 151.328 84.3434 152.48 84.6314C153.68 84.8714 154.76 85.2074 155.72 85.6394V87.5834ZM186.953 101.191V48.6314H176.009V101.191H186.953ZM208.68 101.191V48.6314H197.736V101.191H208.68Z" fill="#092C4C"/>
<path d="M257.767 92.4794V62.5994H246.823V67.6394C245.335 66.0074 243.631 64.6394 241.711 63.5354C239.791 62.4314 237.343 61.8794 234.367 61.8794C232.159 61.8794 230.023 62.2874 227.959 63.1034C225.895 63.8714 224.071 65.0234 222.487 66.5594C220.903 68.0954 219.631 69.9914 218.671 72.2474C217.711 74.4554 217.231 76.9994 217.231 79.8794V80.0234C217.231 82.9034 217.687 85.4714 218.599 87.7274C219.559 89.9354 220.831 91.8074 222.415 93.3434C223.999 94.8794 225.823 96.0554 227.887 96.8714C229.951 97.6394 232.111 98.0234 234.367 98.0234C237.295 98.0234 239.719 97.4714 241.639 96.3674C243.559 95.2634 245.335 93.7274 246.967 91.7594V93.6314C246.967 97.0874 246.055 99.7034 244.231 101.479C242.455 103.255 239.695 104.143 235.951 104.143C233.359 104.143 231.031 103.831 228.967 103.207C226.951 102.583 224.935 101.719 222.919 100.615L219.175 108.823C221.623 110.119 224.287 111.103 227.167 111.775C230.047 112.495 233.071 112.855 236.239 112.855C239.839 112.855 242.983 112.471 245.671 111.703C248.359 110.935 250.591 109.735 252.367 108.103C254.191 106.471 255.535 104.359 256.398 101.767C257.311 99.2234 257.767 96.1274 257.767 92.4794ZM246.967 80.0234C246.967 81.3194 246.727 82.5194 246.247 83.6234C245.767 84.7274 245.095 85.6874 244.231 86.5034C243.415 87.2714 242.431 87.8714 241.279 88.3034C240.127 88.7354 238.879 88.9514 237.535 88.9514C234.847 88.9514 232.615 88.1354 230.839 86.5034C229.063 84.8714 228.175 82.7114 228.175 80.0234V79.8794C228.175 78.5834 228.415 77.3834 228.895 76.2794C229.375 75.1754 230.023 74.2394 230.839 73.4714C231.703 72.6554 232.687 72.0314 233.791 71.5994C234.943 71.1674 236.191 70.9514 237.535 70.9514C238.879 70.9514 240.127 71.1674 241.279 71.5994C242.431 72.0314 243.415 72.6554 244.231 73.4714C245.095 74.2394 245.767 75.1754 246.247 76.2794C246.727 77.3834 246.967 78.5834 246.967 79.8794V80.0234ZM302.608 101.191V62.5994H291.664V84.1274C291.664 86.7194 291.04 88.6874 289.792 90.0314C288.592 91.3274 286.936 91.9754 284.824 91.9754C282.712 91.9754 281.08 91.3274 279.928 90.0314C278.776 88.6874 278.2 86.7194 278.2 84.1274V62.5994H267.256V87.5834C267.256 92.0474 268.384 95.5514 270.64 98.0954C272.944 100.639 276.184 101.911 280.36 101.911C281.752 101.911 283 101.743 284.104 101.407C285.208 101.071 286.216 100.615 287.128 100.039C288.04 99.4634 288.856 98.8154 289.576 98.0954C290.344 97.3274 291.04 96.5354 291.664 95.7194V101.191H302.608ZM335.66 73.3274V61.8794C332.396 61.7354 329.804 62.4554 327.884 64.0394C325.964 65.6234 324.452 67.7354 323.348 70.3754V62.5994H312.404V101.191H323.348V86.9354C323.348 82.2794 324.38 78.8474 326.444 76.6394C328.556 74.4314 331.436 73.3274 335.084 73.3274H335.66ZM377.562 101.191V62.5994H366.618V84.1274C366.618 86.7194 365.994 88.6874 364.746 90.0314C363.546 91.3274 361.89 91.9754 359.778 91.9754C357.666 91.9754 356.034 91.3274 354.882 90.0314C353.73 88.6874 353.154 86.7194 353.154 84.1274V62.5994H342.21V87.5834C342.21 92.0474 343.338 95.5514 345.594 98.0954C347.898 100.639 351.138 101.911 355.314 101.911C356.706 101.911 357.954 101.743 359.058 101.407C360.162 101.071 361.17 100.615 362.082 100.039C362.994 99.4634 363.81 98.8154 364.53 98.0954C365.298 97.3274 365.994 96.5354 366.618 95.7194V101.191H377.562Z" fill="#FF4B75"/>
<defs>
<filter id="filter0_d" x="0" y="51.2275" width="79.7427" height="61.6702" filterUnits="userSpaceOnUse" color-interpolation-filters="sRGB">
<feFlood flood-opacity="0" result="BackgroundImageFix"/>
<feColorMatrix in="SourceAlpha" type="matrix" values="0 0 0 0 0 0 0 0 0 0 0 0 0 0 0 0 0 0 127 0"/>
<feOffset dy="4"/>
<feGaussianBlur stdDeviation="3"/>
<feColorMatrix type="matrix" values="0 0 0 0 0 0 0 0 0 0 0 0 0 0 0 0 0 0 0.1 0"/>
<feBlend mode="normal" in2="BackgroundImageFix" result="effect1_dropShadow"/>
<feBlend mode="normal" in="SourceGraphic" in2="effect1_dropShadow" result="shape"/>
</filter>
</defs>
</svg>
