<svg width="357" height="180" viewBox="0 0 357 180" fill="none" xmlns="http://www.w3.org/2000/svg">
<mask id="mask0" mask-type="alpha" maskUnits="userSpaceOnUse" x="0" y="0" width="358" height="180">
<path d="M0.994629 20C0.994629 8.9543 9.94893 0 20.9946 0H337C348.046 0 357 8.95431 357 20V180H0.994629V20Z" fill="#E4EFFA"/>
</mask>
<g mask="url(#mask0)">
<path d="M219.421 16.5007H155.224V93.5442H219.421V16.5007Z" fill="white"/>
<path d="M219.379 93.9675H155.224C155.168 93.9712 155.111 93.9628 155.059 93.9429C155.006 93.9229 154.959 93.8919 154.919 93.8518C154.879 93.8117 154.848 93.7636 154.829 93.7105C154.809 93.6574 154.801 93.6007 154.804 93.5442V16.5006C154.801 16.4441 154.809 16.3874 154.829 16.3343C154.848 16.2813 154.879 16.2331 154.919 16.193C154.959 16.1529 155.006 16.1219 155.059 16.1019C155.111 16.082 155.168 16.0736 155.224 16.0773H219.421C219.477 16.0736 219.533 16.082 219.586 16.1019C219.638 16.1219 219.686 16.1529 219.726 16.193C219.765 16.2331 219.796 16.2813 219.816 16.3343C219.836 16.3874 219.844 16.4441 219.84 16.5006V93.5442C219.831 93.6606 219.778 93.769 219.692 93.8475C219.607 93.9261 219.495 93.969 219.379 93.9675ZM155.643 93.1209H219.002V16.924H155.643V93.1209Z" fill="#092C4C"/>
<path d="M171.325 26.8719H162.771V32.9253H171.325V26.8719Z" fill="#092C4C"/>
<path d="M184.827 26.8719H176.273V32.9253H184.827V26.8719Z" fill="#092C4C"/>
<path d="M198.329 26.8719H189.775V32.9253H198.329V26.8719Z" fill="#092C4C"/>
<path d="M211.789 26.8719H203.235V32.9253H211.789V26.8719Z" fill="#092C4C"/>
<path d="M171.325 37.6241H162.771V43.6775H171.325V37.6241Z" fill="#092C4C"/>
<path d="M184.827 37.6241H176.273V43.6775H184.827V37.6241Z" fill="#092C4C"/>
<path d="M198.329 37.6241H189.775V43.6775H198.329V37.6241Z" fill="#092C4C"/>
<path d="M211.789 37.6241H203.235V43.6775H211.789V37.6241Z" fill="#092C4C"/>
<path d="M171.325 48.3763H162.771V54.4298H171.325V48.3763Z" fill="#092C4C"/>
<path d="M184.827 48.3763H176.273V54.4298H184.827V48.3763Z" fill="#092C4C"/>
<path d="M198.329 48.3763H189.775V54.4298H198.329V48.3763Z" fill="#092C4C"/>
<path d="M211.789 48.3763H203.235V54.4298H211.789V48.3763Z" fill="#092C4C"/>
<path d="M202.187 70.2618H155.224C155.112 70.2618 155.006 70.2172 154.927 70.1378C154.848 70.0584 154.804 69.9507 154.804 69.8385C154.804 69.7262 154.848 69.6185 154.927 69.5391C155.006 69.4598 155.112 69.4151 155.224 69.4151H202.187C202.243 69.4114 202.299 69.4198 202.352 69.4397C202.404 69.4597 202.452 69.4908 202.492 69.5308C202.531 69.5709 202.562 69.6191 202.582 69.6722C202.602 69.7252 202.61 69.7819 202.606 69.8385C202.606 69.9507 202.562 70.0584 202.483 70.1378C202.405 70.2172 202.298 70.2618 202.187 70.2618Z" fill="#092C4C"/>
<path d="M219.379 70.2618H205.835C205.724 70.2618 205.617 70.2172 205.539 70.1378C205.46 70.0584 205.416 69.9507 205.416 69.8385C205.416 69.7262 205.46 69.6185 205.539 69.5391C205.617 69.4598 205.724 69.4151 205.835 69.4151H219.379C219.49 69.4151 219.597 69.4598 219.676 69.5391C219.754 69.6185 219.798 69.7262 219.798 69.8385C219.798 69.9507 219.754 70.0584 219.676 70.1378C219.597 70.2172 219.49 70.2618 219.379 70.2618Z" fill="#092C4C"/>
<path d="M198.329 44.1009C198.24 44.0921 198.154 44.0631 198.078 44.0162L189.524 37.9628C189.48 37.9294 189.443 37.8876 189.414 37.8398C189.386 37.792 189.368 37.739 189.36 37.684C189.352 37.629 189.355 37.5729 189.369 37.5191C189.383 37.4652 189.407 37.4146 189.44 37.3701C189.473 37.3257 189.514 37.2882 189.562 37.2599C189.609 37.2316 189.661 37.2129 189.716 37.2051C189.77 37.1972 189.826 37.2003 189.879 37.2141C189.933 37.2278 189.983 37.2521 190.027 37.2855L198.581 43.3389C198.63 43.3678 198.673 43.4076 198.704 43.4554C198.736 43.5031 198.757 43.5576 198.765 43.6147C198.773 43.6717 198.769 43.7299 198.751 43.7848C198.734 43.8396 198.704 43.8898 198.665 43.9315C198.628 43.9865 198.578 44.031 198.519 44.0607C198.46 44.0903 198.395 44.1042 198.329 44.1009Z" fill="#092C4C"/>
<path d="M189.775 44.1009C189.71 44.1042 189.644 44.0903 189.585 44.0607C189.527 44.031 189.476 43.9865 189.44 43.9315C189.379 43.8396 189.354 43.7284 189.369 43.619C189.385 43.5097 189.44 43.4099 189.524 43.3389L198.078 37.2855C198.122 37.2521 198.172 37.2278 198.225 37.2141C198.279 37.2003 198.334 37.1972 198.389 37.2051C198.443 37.2129 198.495 37.2316 198.543 37.2599C198.59 37.2882 198.632 37.3257 198.665 37.3701C198.698 37.4146 198.722 37.4652 198.735 37.5191C198.749 37.5729 198.752 37.629 198.744 37.684C198.737 37.739 198.718 37.792 198.69 37.8398C198.662 37.8876 198.625 37.9294 198.581 37.9628L190.027 44.0162C189.994 44.0484 189.954 44.0728 189.911 44.0874C189.867 44.1021 189.821 44.1067 189.775 44.1009Z" fill="#092C4C"/>
<path d="M162.771 20.0565C162.715 20.0603 162.659 20.0519 162.606 20.0319C162.554 20.012 162.506 19.9809 162.467 19.9408C162.427 19.9008 162.396 19.8526 162.376 19.7995C162.357 19.7465 162.348 19.6898 162.352 19.6332V13.7491C162.352 13.6368 162.396 13.5291 162.475 13.4498C162.553 13.3704 162.66 13.3258 162.771 13.3258C162.882 13.3258 162.989 13.3704 163.068 13.4498C163.146 13.5291 163.191 13.6368 163.191 13.7491V19.6332C163.194 19.6898 163.186 19.7465 163.166 19.7995C163.146 19.8526 163.116 19.9008 163.076 19.9408C163.036 19.9809 162.989 20.012 162.936 20.0319C162.883 20.0519 162.827 20.0603 162.771 20.0565Z" fill="#092C4C"/>
<path d="M175.057 20.0565C175.001 20.0603 174.945 20.0519 174.893 20.0319C174.84 20.012 174.792 19.9809 174.753 19.9408C174.713 19.9008 174.682 19.8526 174.662 19.7995C174.643 19.7465 174.634 19.6898 174.638 19.6332V13.7491C174.638 13.6368 174.682 13.5291 174.761 13.4498C174.84 13.3704 174.946 13.3258 175.057 13.3258C175.169 13.3258 175.275 13.3704 175.354 13.4498C175.433 13.5291 175.477 13.6368 175.477 13.7491V19.6332C175.477 19.7455 175.433 19.8531 175.354 19.9325C175.275 20.0119 175.169 20.0565 175.057 20.0565Z" fill="#092C4C"/>
<path d="M187.301 20.0565C187.245 20.0603 187.189 20.0519 187.137 20.0319C187.084 20.012 187.036 19.9809 186.997 19.9408C186.957 19.9008 186.926 19.8526 186.906 19.7995C186.887 19.7465 186.878 19.6898 186.882 19.6332V13.7491C186.882 13.6368 186.926 13.5291 187.005 13.4498C187.083 13.3704 187.19 13.3258 187.301 13.3258C187.412 13.3258 187.519 13.3704 187.598 13.4498C187.676 13.5291 187.721 13.6368 187.721 13.7491V19.6332C187.724 19.6898 187.716 19.7465 187.696 19.7995C187.676 19.8526 187.646 19.9008 187.606 19.9408C187.566 19.9809 187.519 20.012 187.466 20.0319C187.413 20.0519 187.357 20.0603 187.301 20.0565Z" fill="#092C4C"/>
<path d="M199.545 20.0565C199.489 20.0603 199.433 20.0519 199.38 20.0319C199.328 20.012 199.28 19.9809 199.24 19.9408C199.201 19.9008 199.17 19.8526 199.15 19.7995C199.13 19.7465 199.122 19.6898 199.126 19.6332V13.7491C199.126 13.6368 199.17 13.5291 199.249 13.4498C199.327 13.3704 199.434 13.3258 199.545 13.3258C199.656 13.3258 199.763 13.3704 199.842 13.4498C199.92 13.5291 199.964 13.6368 199.964 13.7491V19.6332C199.968 19.6898 199.96 19.7465 199.94 19.7995C199.92 19.8526 199.89 19.9008 199.85 19.9408C199.81 19.9809 199.762 20.012 199.71 20.0319C199.657 20.0519 199.601 20.0603 199.545 20.0565Z" fill="#092C4C"/>
<path d="M211.831 20.0565C211.775 20.0603 211.719 20.0519 211.667 20.0319C211.614 20.012 211.566 19.9809 211.527 19.9408C211.487 19.9008 211.456 19.8526 211.436 19.7995C211.417 19.7465 211.408 19.6898 211.412 19.6332V13.7491C211.412 13.6368 211.456 13.5291 211.535 13.4498C211.613 13.3704 211.72 13.3258 211.831 13.3258C211.943 13.3258 212.049 13.3704 212.128 13.4498C212.206 13.5291 212.251 13.6368 212.251 13.7491V19.6332C212.251 19.7455 212.206 19.8531 212.128 19.9325C212.049 20.0119 211.943 20.0565 211.831 20.0565Z" fill="#092C4C"/>
<path d="M130.018 55.5304L128.215 40.291L143.688 40.7567L144.275 42.1113C144.275 42.1113 147.21 42.2806 147.42 43.8469C147.63 45.4131 144.82 45.6671 144.317 46.1328C143.353 46.9794 143.101 48.588 143.017 49.985C142.92 50.6725 142.68 51.3313 142.311 51.9174C141.942 52.5036 141.454 53.0036 140.878 53.3841C140.303 53.7647 139.654 54.017 138.974 54.1244C138.295 54.2317 137.6 54.1915 136.937 54.0065L136.769 53.9641L136.476 56.377C136.476 56.377 133.625 56.6733 131.905 55.996L130.018 55.5304Z" fill="white"/>
<path d="M114.085 93.2055C114.21 90.9196 115.93 81.9453 115.93 81.9453L116.097 81.014C114.564 80.2834 113.355 79.0038 112.704 77.4237C112.053 75.8435 112.007 74.0755 112.575 72.463C114.42 67.2139 116.81 60.4832 117.439 59.1286C118.529 56.8427 121.255 56.0384 121.255 56.0384L136.602 55.5727L138.615 55.8267C141.256 56.1654 142.64 58.3243 143.395 60.4408L145.156 65.3513L142.892 74.2833C143.143 76.4845 145.156 94.7718 145.156 94.7718L114.085 93.2055Z" fill="white"/>
<path d="M158.868 45.9761C153.752 45.2142 153.207 50.6749 153.207 50.6749L160.88 52.7915C160.88 52.7915 164.78 46.8947 158.868 45.9761Z" fill="white"/>
<path d="M177.821 107.492H100.247V164.886H177.821V107.492Z" fill="white"/>
<path d="M99.8696 164.886V107.492C99.8696 107.302 100.037 107.175 100.289 107.175H177.862C178.114 107.175 178.282 107.302 178.282 107.492V164.886C178.282 165.076 178.114 165.203 177.862 165.203H100.289C100.037 165.203 99.8696 165.046 99.8696 164.886ZM177.401 107.81H100.666V164.568H177.401V107.81Z" fill="#092C4C"/>
<path d="M154.2 144.511L153.907 149.253C153.907 149.253 166.109 156.407 166.067 158.015C166.025 159.624 163.97 159.073 163.97 159.073L141.243 152.343L144.179 141.929L154.2 144.511Z" fill="white"/>
<path d="M163.941 159.454L141.202 152.724C141.097 152.694 141.008 152.624 140.953 152.53C140.899 152.435 140.882 152.322 140.908 152.216L143.843 141.802C143.873 141.697 143.942 141.607 144.036 141.551C144.13 141.496 144.241 141.48 144.347 141.506L154.41 144.13C154.499 144.158 154.575 144.215 154.628 144.292C154.681 144.368 154.708 144.46 154.704 144.554L154.41 149.041C158.226 151.327 166.57 156.407 166.528 158.058C166.531 158.294 166.48 158.528 166.378 158.741C166.276 158.954 166.127 159.14 165.941 159.285C165.594 159.518 165.184 159.637 164.767 159.624C164.482 159.636 164.199 159.578 163.941 159.454ZM144.443 142.492L141.759 152.101L164.109 158.705C164.551 158.844 165.029 158.814 165.451 158.621C165.535 158.578 165.702 158.451 165.702 158.07C165.535 157.097 159.497 153.075 153.752 149.689C153.687 149.649 153.634 149.593 153.598 149.526C153.561 149.459 153.542 149.384 153.542 149.308L153.836 144.905L144.443 142.492Z" fill="#092C4C"/>
<path d="M156.98 97.6207C159.332 98.4614 161.342 100.063 162.699 102.175C164.057 104.288 164.685 106.794 164.486 109.304L161.509 147.445L139.076 142.704L146.036 110.151L116.097 107.569V93.1759H144.611L156.98 97.6207Z" fill="#FF4B75"/>
<path d="M137.314 111.493L141.591 113.525C141.591 113.525 141.927 127.748 143.353 128.468C144.778 129.187 145.281 127.113 145.281 127.113L150.355 103.746L139.914 101.333L137.314 111.493Z" fill="white"/>
<path d="M143.143 128.891C141.675 128.129 141.298 118.308 141.172 113.821L137.147 111.916C137.065 111.863 137.002 111.786 136.964 111.695C136.927 111.604 136.917 111.504 136.937 111.408L139.495 101.206C139.525 101.101 139.593 101.011 139.687 100.955C139.781 100.9 139.893 100.884 139.998 100.91L150.439 103.323C150.495 103.333 150.548 103.354 150.595 103.385C150.642 103.417 150.683 103.457 150.714 103.505C150.745 103.552 150.767 103.605 150.777 103.661C150.788 103.718 150.787 103.775 150.775 103.831L145.701 127.198C145.659 127.367 145.365 128.552 144.527 128.933C144.345 129.025 144.143 129.068 143.94 129.06C143.666 129.053 143.396 128.996 143.143 128.891ZM140.292 101.841L137.902 111.281L141.843 113.144C141.917 113.176 141.98 113.229 142.024 113.297C142.069 113.364 142.093 113.444 142.095 113.525C142.221 120.255 142.85 127.536 143.604 128.129C143.94 128.298 144.149 128.214 144.191 128.171C144.558 127.89 144.811 127.484 144.904 127.028L149.894 104.085L140.292 101.841Z" fill="#092C4C"/>
<path d="M144.737 94.8141C144.695 94.5178 141.466 65.2667 141.214 63.0654C141.209 63.0098 141.214 62.9537 141.23 62.9002C141.246 62.8467 141.272 62.7969 141.307 62.7537C141.342 62.7105 141.386 62.6746 141.434 62.6482C141.483 62.6218 141.537 62.6053 141.592 62.5998C141.647 62.5942 141.702 62.5997 141.755 62.6158C141.808 62.6319 141.858 62.6584 141.9 62.6938C141.943 62.7292 141.979 62.7727 142.005 62.822C142.031 62.8712 142.047 62.9252 142.053 62.9808C142.304 65.182 145.533 94.4331 145.575 94.7295C145.572 94.8381 145.533 94.9426 145.465 95.0268C145.396 95.1109 145.303 95.1701 145.198 95.1951H145.156C145.052 95.1956 144.951 95.1569 144.873 95.0864C144.796 95.016 144.747 94.9189 144.737 94.8141Z" fill="#092C4C"/>
<path d="M161.329 48.4187C161.329 48.4187 161.664 50.7469 161.79 51.1702C161.916 51.5936 162.168 53.0752 163.09 52.6942C164.013 52.3132 163.761 49.477 163.425 48.6303C163.09 47.7837 162.545 47.8684 162.545 47.8684C162.167 47.7414 161.329 48.4187 161.329 48.4187Z" fill="white"/>
<path d="M162.348 53.0751C161.761 52.7788 161.551 51.8899 161.425 51.4242L161.383 51.2972C161.258 50.8739 160.922 48.7573 160.88 48.5033C160.877 48.431 160.89 48.3588 160.919 48.2926C160.948 48.2264 160.992 48.1681 161.048 48.1224C161.341 47.9107 162.054 47.3604 162.599 47.4451C162.935 47.4451 163.48 47.6567 163.815 48.5033C164.067 49.223 164.612 52.5248 163.228 53.1175C163.078 53.1625 162.923 53.1909 162.767 53.2021C162.617 53.2122 162.468 53.1671 162.348 53.0751ZM162.432 48.207C162.174 48.2912 161.933 48.4202 161.719 48.588C161.845 49.5193 162.054 50.7892 162.138 51.0432L162.18 51.2126C162.264 51.4665 162.432 52.1862 162.683 52.3132C162.725 52.3555 162.767 52.3555 162.893 52.3132C163.438 52.1015 163.354 49.731 163.019 48.7997C162.851 48.4187 162.683 48.2917 162.599 48.2917C162.516 48.2917 162.516 48.2917 162.432 48.207Z" fill="#092C4C"/>
<path d="M161.257 49.9003C161.97 50.2813 162.767 48.6727 162.977 48.1224C163.186 47.5721 163.564 45.9211 162.977 45.4978C162.39 45.0745 161.174 45.4978 161.174 45.4978C160.125 46.0058 160.545 49.5193 161.257 49.9003Z" fill="white"/>
<path d="M161.09 50.2813C160.419 49.9003 160.125 48.1647 160.167 47.0641C160.209 46.0481 160.503 45.4132 161.006 45.1592H161.048C161.174 45.1168 162.432 44.6512 163.228 45.2015C164.277 45.8788 163.438 48.207 163.396 48.2917C163.354 48.3764 162.725 49.985 161.845 50.3236C161.736 50.3585 161.622 50.3728 161.509 50.3659C161.366 50.3582 161.225 50.3297 161.09 50.2813ZM161.341 45.9211C161.216 46.0058 161.048 46.2598 161.006 46.8524C160.88 48.0377 161.299 49.3923 161.509 49.5616H161.551C161.886 49.4347 162.39 48.5457 162.599 47.9954C162.893 47.1911 163.061 46.0481 162.767 45.8788C162.615 45.7872 162.44 45.743 162.264 45.7518C161.945 45.7538 161.629 45.8111 161.329 45.9211H161.341Z" fill="#092C4C"/>
<path d="M158.7 47.6694C158.826 48.1774 159.077 49.2357 160.042 49.3204C161.006 49.405 161.3 48.1774 161.3 46.7381C161.3 45.2988 160.754 43.3516 159.958 43.5632C159.416 43.7521 158.947 44.1074 158.616 44.5792C158.616 44.5792 158.532 47.1911 158.7 47.6694Z" fill="white"/>
<path d="M160.042 49.7309C158.909 49.604 158.532 48.461 158.364 47.9107L158.322 47.7837C158.155 47.2334 158.197 45.1591 158.197 44.5242C158.197 44.4395 158.238 44.3972 158.28 44.3125C158.672 43.7556 159.231 43.3402 159.874 43.1272C160.014 43.0994 160.158 43.104 160.296 43.1406C160.434 43.1773 160.562 43.2451 160.671 43.3389C161.341 43.9315 161.719 45.4978 161.719 46.7254C161.719 48.0377 161.467 48.9267 160.964 49.3923C160.732 49.6002 160.435 49.72 160.125 49.7309H160.042ZM160.042 44.0162C159.829 44.0627 159.63 44.1548 159.456 44.2863C159.282 44.4178 159.139 44.5856 159.035 44.7782C159.004 45.7103 159.032 46.6435 159.119 47.572L159.161 47.699C159.371 48.2917 159.58 48.8843 160.125 48.9267C160.177 48.9456 160.233 48.9476 160.286 48.9324C160.339 48.9172 160.385 48.8855 160.419 48.842C160.545 48.715 160.88 48.2493 160.88 46.7677C160.88 45.6671 160.503 44.3972 160.125 44.0585C160.104 44.0344 160.074 44.0193 160.042 44.0162Z" fill="#092C4C"/>
<path d="M154.171 44.9475C154.087 43.9315 154.758 43.0002 155.303 42.8309C156.687 42.4076 158.197 43.2542 158.658 44.9051C159.119 46.5561 159.497 48.7996 158.658 49.096C157.819 49.3923 156.939 48.9266 156.645 47.6567C156.352 46.3867 155.89 44.3125 155.89 44.3125" fill="white"/>
<path d="M157.232 49.3627C156.949 49.1911 156.708 48.9574 156.527 48.6789C156.345 48.4005 156.228 48.0844 156.184 47.7541C155.89 46.4841 155.429 44.4099 155.429 44.4099L156.268 44.2406C156.268 44.2406 156.729 46.3148 157.023 47.5848C157.046 47.7965 157.114 48.0007 157.222 48.1834C157.331 48.366 157.477 48.5229 157.652 48.643C157.916 48.7635 158.215 48.7786 158.49 48.6854C158.826 48.6007 158.868 47.2884 158.239 45.0449C158.043 44.3635 157.592 43.7862 156.981 43.4363C156.492 43.1726 155.92 43.1119 155.387 43.2669C155.094 43.3516 154.507 44.1136 154.549 44.9602C154.56 45.0725 154.526 45.1846 154.455 45.2719C154.385 45.3592 154.282 45.4146 154.171 45.4258C154.06 45.4371 153.949 45.4032 153.862 45.3318C153.776 45.2603 153.721 45.1571 153.71 45.0449C153.668 43.8172 154.423 42.6743 155.178 42.4626C155.922 42.2479 156.721 42.3392 157.4 42.7166C157.797 42.9435 158.146 43.2472 158.427 43.6104C158.707 43.9736 158.914 44.3891 159.035 44.8332C159.496 46.3995 160.084 49.1087 158.784 49.532C158.584 49.6148 158.37 49.6579 158.155 49.659C157.823 49.6651 157.499 49.561 157.232 49.3627Z" fill="#092C4C"/>
<path d="M149.685 47.0641C149.631 46.8172 149.675 46.5588 149.808 46.3448C149.942 46.1309 150.153 45.9786 150.397 45.9211L167.631 41.6879C167.876 41.6334 168.132 41.6784 168.344 41.8131C168.556 41.9478 168.706 42.1614 168.763 42.4076C168.817 42.6545 168.773 42.9129 168.639 43.1268C168.506 43.3408 168.294 43.493 168.051 43.5505L150.817 47.7837C150.695 47.8155 150.569 47.8219 150.445 47.8025C150.321 47.7831 150.203 47.7383 150.097 47.6709C149.99 47.6035 149.899 47.5149 149.828 47.4105C149.757 47.3061 149.709 47.1882 149.685 47.0641Z" fill="white"/>
<path d="M149.265 47.1911C149.219 47.0131 149.209 46.8278 149.235 46.6458C149.261 46.4639 149.323 46.289 149.417 46.1314C149.51 45.9738 149.634 45.8366 149.781 45.7278C149.928 45.619 150.094 45.5408 150.271 45.4978L167.505 41.2646C167.682 41.2165 167.867 41.2068 168.047 41.2359C168.228 41.2651 168.401 41.3326 168.554 41.434C168.713 41.5211 168.851 41.6419 168.96 41.788C169.068 41.9341 169.144 42.1021 169.183 42.2806C169.228 42.4585 169.238 42.6439 169.212 42.8258C169.186 43.0077 169.125 43.1826 169.031 43.3403C168.937 43.4979 168.814 43.6351 168.667 43.7439C168.52 43.8527 168.353 43.9308 168.176 43.9739L150.942 48.207C150.834 48.2419 150.72 48.2562 150.607 48.2493C150.298 48.2492 149.999 48.145 149.756 47.9532C149.513 47.7615 149.34 47.4932 149.265 47.1911ZM150.733 47.4027L167.967 43.1272C168.033 43.112 168.097 43.0832 168.152 43.0426C168.208 43.002 168.254 42.9505 168.29 42.8912C168.325 42.8318 168.348 42.7659 168.357 42.6973C168.367 42.6288 168.362 42.559 168.344 42.4923C168.299 42.3546 168.211 42.2356 168.092 42.1536C167.96 42.0979 167.814 42.0832 167.673 42.1113L150.439 46.3444C150.313 46.3868 150.146 46.4714 150.104 46.5984C150.049 46.7322 150.034 46.8795 150.062 47.0217C150.107 47.1594 150.195 47.2784 150.313 47.3604C150.446 47.4161 150.592 47.4308 150.733 47.4027Z" fill="#092C4C"/>
<path d="M143.898 65.309H160.88L154.171 89.4803H137.189L143.898 65.309Z" fill="white"/>
<path d="M136.853 89.7343C136.81 89.6823 136.78 89.6205 136.765 89.5542C136.751 89.4879 136.752 89.419 136.77 89.3533L143.479 65.2243C143.516 65.1416 143.574 65.0704 143.648 65.0183C143.722 64.9662 143.808 64.935 143.898 64.928H160.88C161.009 64.9399 161.129 65.0004 161.216 65.0973C161.259 65.1494 161.289 65.2112 161.304 65.2775C161.318 65.3438 161.317 65.4127 161.3 65.4783L154.59 89.6073C154.553 89.6901 154.495 89.7612 154.421 89.8133C154.347 89.8654 154.261 89.8966 154.171 89.9036H137.189C137.06 89.8917 136.94 89.8313 136.853 89.7343ZM160.293 65.7746H144.191L137.734 89.057H153.836L160.293 65.7746Z" fill="#092C4C"/>
<path d="M140.124 44.5242C140.425 44.5242 140.669 44.2778 140.669 43.9739C140.669 43.6699 140.425 43.4236 140.124 43.4236C139.823 43.4236 139.579 43.6699 139.579 43.9739C139.579 44.2778 139.823 44.5242 140.124 44.5242Z" fill="#092C4C"/>
<path d="M137.818 44.7782C138.119 44.7782 138.363 44.5318 138.363 44.2278C138.363 43.9239 138.119 43.6775 137.818 43.6775C137.517 43.6775 137.273 43.9239 137.273 44.2278C137.273 44.5318 137.517 44.7782 137.818 44.7782Z" fill="#092C4C"/>
<path d="M131.779 56.377C131.727 56.3576 131.679 56.3279 131.638 56.2897C131.597 56.2515 131.564 56.2056 131.541 56.1545C131.517 56.1034 131.504 56.0481 131.502 55.9919C131.5 55.9356 131.509 55.8795 131.528 55.8267C131.547 55.7739 131.577 55.7254 131.614 55.6841C131.652 55.6427 131.698 55.6093 131.748 55.5857C131.799 55.5621 131.854 55.5489 131.909 55.5466C131.965 55.5444 132.021 55.5533 132.073 55.5727C133.373 56.0807 135.344 55.996 136.14 55.9537L136.392 53.8794C136.397 53.8239 136.414 53.7699 136.44 53.7207C136.466 53.6714 136.502 53.6279 136.544 53.5925C136.587 53.5571 136.637 53.5306 136.69 53.5145C136.743 53.4983 136.798 53.4929 136.853 53.4985C136.908 53.504 136.962 53.5205 137.01 53.5469C137.059 53.5733 137.102 53.6091 137.137 53.6524C137.172 53.6956 137.199 53.7454 137.215 53.7989C137.231 53.8524 137.236 53.9085 137.231 53.9641L136.937 56.377C136.895 56.5887 136.769 56.758 136.56 56.758C136.06 56.8351 135.555 56.8635 135.05 56.8427C133.942 56.8785 132.835 56.7209 131.779 56.377Z" fill="#092C4C"/>
<path d="M142.934 34.2799C140.208 31.105 135.931 31.2744 134.338 31.9517C132.744 32.629 131.486 32.5443 129.977 32.2057C127.125 31.5707 126.58 33.0946 125.825 34.9572C123.687 33.7719 121.465 34.1529 120.416 35.8885C118.907 38.4284 121.548 39.8254 119.116 42.0689C116.684 44.3125 118.613 45.9211 118.823 48.3763C119.033 50.8316 115.175 54.9377 115.175 54.9377L130.186 59.8905C130.186 59.8905 129.557 57.52 130.48 55.9537C131.086 55.0125 131.418 53.9191 131.44 52.7969C131.463 51.6748 131.174 50.5688 130.606 49.604C129.767 48.1224 130.857 46.4291 131.654 44.7358C132.451 43.0426 130.899 40.7567 130.899 40.7567H144.317C144.317 40.7567 145.114 36.6928 142.934 34.2799Z" fill="#FF4B75"/>
<path d="M125.448 35.0419C125.448 34.9996 124.861 32.502 122.471 31.9517C122.415 31.9416 122.362 31.9203 122.315 31.8891C122.268 31.8578 122.227 31.8173 122.196 31.7698C122.165 31.7224 122.143 31.669 122.133 31.613C122.122 31.557 122.123 31.4994 122.135 31.4437C122.145 31.3876 122.166 31.3341 122.197 31.2864C122.228 31.2387 122.269 31.1978 122.315 31.1662C122.362 31.1346 122.415 31.1128 122.471 31.1023C122.526 31.0918 122.583 31.0928 122.639 31.1051C125.532 31.7824 126.203 34.7032 126.245 34.8302C126.259 34.9415 126.233 35.0541 126.171 35.1475C126.109 35.2408 126.016 35.3085 125.909 35.3382H125.825C125.658 35.3382 125.448 35.2112 125.448 35.0419Z" fill="#092C4C"/>
<path d="M135.05 53.7948C134.968 53.7392 134.909 53.6563 134.881 53.5606C134.854 53.4649 134.861 53.3626 134.901 53.2717C134.941 53.1807 135.012 53.1069 135.1 53.0632C135.189 53.0195 135.29 53.0088 135.386 53.0328C137.273 53.9218 139.034 53.9641 140.376 53.1598C140.936 52.8205 141.415 52.3596 141.778 51.8106C142.14 51.2615 142.377 50.6379 142.472 49.9849C142.556 48.588 142.766 46.8101 143.898 45.8364C144.225 45.634 144.577 45.4774 144.946 45.3708C146.078 44.9898 146.959 44.6088 146.875 43.9315C146.749 42.9579 144.82 42.6192 144.149 42.5769C144.042 42.5577 143.944 42.5002 143.875 42.4147C143.806 42.3293 143.769 42.2216 143.772 42.1113C143.797 42.0055 143.855 41.9108 143.939 41.842C144.022 41.7731 144.126 41.7339 144.233 41.7303C144.569 41.7303 147.504 41.9419 147.755 43.8045C147.923 45.2438 146.33 45.7518 145.282 46.1328C145.017 46.1941 144.763 46.2939 144.527 46.4291C143.646 47.1911 143.478 48.842 143.395 49.9849C143.285 50.7755 143.003 51.5315 142.568 52.1979C142.132 52.8643 141.555 53.4243 140.879 53.8371C140.096 54.317 139.195 54.5662 138.279 54.5568C137.163 54.5222 136.065 54.2632 135.05 53.7948Z" fill="#092C4C"/>
<path d="M133.08 87.6601L116.517 81.6067C114.717 80.9397 113.25 79.5838 112.434 77.8327C111.618 76.0816 111.518 74.0763 112.156 72.2514C114.043 66.9176 116.433 60.2292 117.062 58.8746C118.194 56.4616 121.003 55.615 121.129 55.5727C121.226 55.5659 121.323 55.5936 121.402 55.651C121.482 55.7084 121.539 55.792 121.564 55.8873C121.588 55.9825 121.58 56.0836 121.539 56.173C121.497 56.2624 121.427 56.3345 121.339 56.377C121.297 56.377 118.739 57.1813 117.775 59.2555C117.271 60.3138 115.594 64.928 112.91 72.59C112.349 74.2016 112.438 75.9718 113.16 77.517C113.883 79.0621 115.179 80.2578 116.768 80.8447L132.912 86.7288L136.057 76.3575L121.8 73.5213C121.744 73.5112 121.691 73.49 121.644 73.4587C121.597 73.4275 121.556 73.3869 121.525 73.3394C121.494 73.292 121.472 73.2387 121.462 73.1826C121.451 73.1266 121.452 73.069 121.465 73.0133C121.475 72.9572 121.496 72.9037 121.527 72.856C121.558 72.8083 121.598 72.7674 121.645 72.7358C121.692 72.7042 121.745 72.6825 121.8 72.6719C121.856 72.6614 121.913 72.6624 121.968 72.6747L136.686 75.6379C136.805 75.6721 136.909 75.7469 136.979 75.8495C137.037 75.9524 137.052 76.0741 137.021 76.1882L133.625 87.4061C133.608 87.4605 133.581 87.511 133.545 87.5546C133.509 87.5982 133.465 87.6341 133.415 87.6601C133.373 87.7024 133.331 87.7024 133.247 87.7024C133.189 87.7042 133.131 87.6895 133.08 87.6601Z" fill="#092C4C"/>
<path d="M149.852 79.998C151.288 79.998 152.452 78.823 152.452 77.3735C152.452 75.924 151.288 74.7489 149.852 74.7489C148.416 74.7489 147.252 75.924 147.252 77.3735C147.252 78.823 148.416 79.998 149.852 79.998Z" fill="#FF4B75"/>
<path d="M134.044 84.5275C134.044 84.5275 138.782 86.6864 141.927 87.4484C144.233 87.9987 145.994 88.2103 146.582 87.152C147.127 86.1784 145.198 85.2471 145.198 85.2471C145.198 85.2471 149.139 85.7551 149.139 84.0618C149.139 83.5962 149.055 83.0459 147.923 82.3686C149.265 82.4532 149.726 81.5643 149.81 80.9293C149.894 80.2943 149.139 79.49 148.217 79.4054C149.81 78.6434 149.643 77.4581 149.643 77.4581C149.643 77.4581 149.475 75.8919 147.252 76.5692C145.03 77.2465 140.711 76.7385 140.711 76.7385C140.711 76.7385 141.759 73.1403 142.179 71.4471C141.298 70.6428 140.292 73.1403 139.034 73.7753C137.776 74.4103 136.644 76.0612 136.644 76.0612L134.044 84.5275Z" fill="white"/>
<path d="M141.927 87.7871C138.782 86.9828 134.17 84.9085 133.96 84.8239C133.875 84.7737 133.809 84.6969 133.771 84.6053C133.733 84.5136 133.726 84.4121 133.751 84.3159L136.308 75.8919C136.306 75.8689 136.308 75.8456 136.315 75.8237C136.322 75.8017 136.334 75.7816 136.35 75.7649C136.392 75.7226 137.566 74.0293 138.908 73.352C139.411 73.0078 139.851 72.5781 140.208 72.0821C140.753 71.4048 141.214 70.8545 141.801 70.8121C141.934 70.8113 142.065 70.8371 142.187 70.888C142.31 70.9389 142.421 71.0138 142.514 71.1084C142.572 71.1604 142.614 71.2275 142.636 71.3022C142.658 71.3769 142.66 71.4563 142.64 71.5318C142.305 72.844 141.592 75.2993 141.298 76.3575C142.514 76.4845 145.533 76.6539 147.211 76.1459C148.133 75.8496 148.888 75.8919 149.433 76.2729C149.622 76.3953 149.783 76.5566 149.906 76.7463C150.029 76.936 150.11 77.1497 150.146 77.3735C150.181 77.7371 150.122 78.1036 149.975 78.4374C149.828 78.7712 149.598 79.061 149.307 79.2784C149.544 79.4277 149.756 79.6134 149.936 79.8287C150.073 79.9828 150.178 80.1638 150.243 80.3605C150.308 80.5571 150.332 80.7652 150.313 80.9717C150.272 81.3362 150.133 81.6823 149.911 81.9731C149.69 82.2639 149.394 82.4884 149.056 82.6226C149.25 82.7968 149.404 83.0125 149.505 83.2542C149.607 83.4958 149.654 83.7573 149.643 84.0196C149.648 84.2132 149.609 84.4054 149.529 84.5815C149.449 84.7576 149.33 84.9129 149.181 85.0355C148.594 85.5435 147.546 85.7128 146.665 85.7128C146.844 85.9118 146.986 86.1412 147.085 86.3901C147.133 86.5431 147.151 86.7044 147.137 86.8644C147.122 87.0244 147.076 87.1798 147.001 87.3214C146.582 88.0411 145.827 88.2951 144.862 88.2951C143.865 88.2636 142.878 88.0926 141.927 87.7871ZM145.198 84.6969C146.162 84.8239 147.923 84.8239 148.51 84.3159C148.566 84.2701 148.61 84.2118 148.639 84.1456C148.668 84.0794 148.682 84.0072 148.678 83.9349C148.678 83.5963 148.678 83.2153 147.672 82.6226C147.593 82.5665 147.531 82.4891 147.494 82.3992C147.457 82.3093 147.446 82.2107 147.462 82.1146C147.49 82.0254 147.546 81.948 147.622 81.8944C147.698 81.8408 147.789 81.8141 147.881 81.8183C149.139 81.903 149.307 81.014 149.349 80.76C149.347 80.5696 149.272 80.3874 149.139 80.2521C148.882 79.9501 148.524 79.7542 148.133 79.7018C148.044 79.6906 147.96 79.6523 147.892 79.5918C147.825 79.5313 147.777 79.4515 147.756 79.3631C147.749 79.2692 147.768 79.1753 147.813 79.0926C147.858 79.01 147.925 78.9422 148.007 78.8974C149.265 78.2625 149.181 77.4158 149.181 77.3735C149.165 77.2696 149.126 77.1704 149.068 77.0828C149.01 76.9952 148.935 76.9211 148.846 76.8655C148.552 76.6539 148.007 76.6539 147.336 76.8655C145.072 77.5852 140.795 77.0772 140.627 77.0772C140.569 77.0711 140.513 77.0529 140.463 77.0237C140.412 76.9946 140.368 76.9551 140.334 76.9079C140.276 76.805 140.261 76.6833 140.292 76.5692C140.292 76.5269 141.172 73.479 141.634 71.7011C141.31 71.9806 141.015 72.2926 140.753 72.6324C140.333 73.2206 139.807 73.7233 139.202 74.114C138.328 74.6629 137.573 75.3825 136.979 76.2306L134.547 84.2312C135.679 84.7392 139.411 86.3478 142.011 86.9828C143.814 87.4061 145.743 87.7448 146.204 86.8981C146.24 86.8677 146.264 86.8254 146.271 86.7789C146.279 86.7324 146.27 86.6846 146.246 86.6441C146.12 86.2208 145.449 85.7975 145.03 85.5858C144.945 85.5356 144.879 85.4589 144.841 85.3673C144.803 85.2756 144.796 85.174 144.82 85.0779C144.858 84.9951 144.916 84.924 144.99 84.8719C145.064 84.8197 145.15 84.7885 145.24 84.7815C145.24 84.7815 145.282 84.7815 145.198 84.6969Z" fill="#092C4C"/>
<path d="M143.059 80.0827C143.003 80.0865 142.947 80.0781 142.894 80.0581C142.842 80.0382 142.794 80.0071 142.754 79.967C142.715 79.927 142.684 79.8788 142.664 79.8257C142.644 79.7727 142.636 79.716 142.64 79.6594C142.64 79.5471 142.684 79.4395 142.763 79.3601C142.841 79.2807 142.948 79.2361 143.059 79.2361C145.03 79.2784 148.175 78.9398 148.217 78.9398C148.272 78.9339 148.328 78.9392 148.381 78.9552C148.434 78.9712 148.483 78.9977 148.526 79.0331C148.569 79.0686 148.604 79.1122 148.631 79.1616C148.657 79.211 148.673 79.2651 148.678 79.3207C148.674 79.4294 148.636 79.5339 148.567 79.6181C148.499 79.7022 148.405 79.7614 148.301 79.7864C148.217 79.7864 145.617 80.0827 143.604 80.0827H143.059Z" fill="#092C4C"/>
<path d="M142.221 82.411C142.132 82.3685 142.062 82.2964 142.021 82.207C141.98 82.1176 141.971 82.0165 141.996 81.9212C142.021 81.8259 142.078 81.7424 142.157 81.685C142.236 81.6276 142.333 81.5999 142.43 81.6067C144.317 82.0723 147.923 81.9453 147.965 81.9453C148.076 81.9453 148.183 81.9899 148.262 82.0693C148.34 82.1487 148.385 82.2564 148.385 82.3686C148.385 82.4809 148.34 82.5886 148.262 82.668C148.183 82.7474 148.076 82.792 147.965 82.792H146.749C145.23 82.8318 143.712 82.704 142.221 82.411Z" fill="#092C4C"/>
<path d="M145.198 85.6705C145.072 85.6705 141.885 85.3319 140.543 84.5276C140.494 84.4998 140.45 84.4624 140.415 84.4176C140.38 84.3727 140.353 84.3213 140.338 84.2663C140.322 84.2113 140.318 84.1537 140.324 84.0968C140.331 84.04 140.348 83.985 140.376 83.9349C140.403 83.8849 140.44 83.8408 140.485 83.8052C140.529 83.7696 140.58 83.7432 140.634 83.7275C140.689 83.7118 140.746 83.7071 140.802 83.7136C140.859 83.7201 140.913 83.7378 140.963 83.7656C142.137 84.4429 145.24 84.7816 145.282 84.7816C145.337 84.7868 145.39 84.8031 145.439 84.8294C145.488 84.8558 145.531 84.8916 145.566 84.9349C145.602 84.9782 145.628 85.0281 145.644 85.0817C145.66 85.1353 145.665 85.1915 145.659 85.2472C145.644 85.3499 145.593 85.444 145.517 85.5135C145.44 85.5829 145.342 85.6235 145.24 85.6282C145.229 85.6282 145.218 85.6326 145.21 85.6406C145.202 85.6485 145.198 85.6593 145.198 85.6705Z" fill="#092C4C"/>
<path d="M144.737 65.4487L142.975 60.5382C142.053 57.9137 140.543 56.4744 138.573 56.2204L136.56 55.9664C136.505 55.9608 136.451 55.9444 136.403 55.918C136.354 55.8916 136.311 55.8557 136.276 55.8125C136.241 55.7692 136.214 55.7195 136.198 55.666C136.182 55.6125 136.177 55.5563 136.183 55.5008C136.188 55.4452 136.204 55.3912 136.23 55.342C136.257 55.2927 136.292 55.2492 136.335 55.2138C136.378 55.1784 136.427 55.1519 136.48 55.1358C136.533 55.1197 136.589 55.1142 136.644 55.1198L138.656 55.3738C141.005 55.6701 142.724 57.321 143.772 60.2419L145.533 65.1523C145.553 65.2051 145.563 65.2614 145.561 65.3178C145.559 65.3743 145.546 65.4298 145.522 65.481C145.499 65.5323 145.466 65.5783 145.424 65.6164C145.383 65.6545 145.334 65.6838 145.282 65.7027C145.265 65.7187 145.245 65.7308 145.223 65.7381C145.202 65.7454 145.179 65.7478 145.156 65.745C145.063 65.7493 144.972 65.7225 144.896 65.6689C144.82 65.6153 144.764 65.5379 144.737 65.4487Z" fill="#092C4C"/>
<path d="M157.4 65.309L160.461 56.4193L150.104 54.2604L147.21 65.309H157.4Z" fill="white"/>
<path d="M146.833 65.5629C146.79 65.5109 146.76 65.4491 146.745 65.3828C146.73 65.3165 146.732 65.2476 146.749 65.182L149.643 54.0911C149.679 53.9903 149.749 53.9056 149.841 53.8515C149.933 53.7974 150.041 53.7774 150.146 53.7948L160.503 55.9537C160.629 55.996 160.754 56.0384 160.796 56.1654C160.835 56.2119 160.859 56.2685 160.866 56.3285C160.874 56.3885 160.864 56.4494 160.838 56.504L157.777 65.436C157.752 65.5183 157.702 65.5908 157.635 65.6437C157.567 65.6967 157.485 65.7276 157.4 65.7323H147.21C147.139 65.7359 147.067 65.7225 147.002 65.6931C146.936 65.6637 146.878 65.6191 146.833 65.5629ZM159.916 56.7157L150.397 54.7261L147.756 64.8857H157.106L159.916 56.7157Z" fill="#092C4C"/>
<path d="M156.813 49.985C156.729 49.3923 156.268 48.6727 155.303 47.826C156.813 47.0641 156.98 44.7358 156.184 44.3549C155.387 43.9739 153.961 45.9635 152.578 46.6831C151.194 47.4027 151.655 48.2917 151.865 49.985C152.074 51.6782 151.487 54.5568 151.487 54.5568C151.487 54.5568 157.651 55.8691 158.574 56.0384C159.496 56.2077 160.293 54.5144 160.545 53.7101C160.89 52.8492 161.296 52.0146 161.761 51.2126" fill="white"/>
<path d="M158.394 56.504L151.307 55.0224C151.252 55.0124 151.199 54.9911 151.151 54.9598C151.104 54.9286 151.064 54.888 151.032 54.8406C151.001 54.7931 150.979 54.7398 150.969 54.6837C150.959 54.6277 150.96 54.5701 150.972 54.5144C150.972 54.4721 151.517 51.6782 151.349 50.0696C151.307 49.7733 151.265 49.477 151.223 49.223C151.056 48.08 150.888 47.1064 152.272 46.3868C152.837 46.0609 153.359 45.6625 153.823 45.2015C154.746 44.3972 155.542 43.7199 156.255 44.0585C156.491 44.2016 156.682 44.408 156.808 44.6548C156.934 44.9015 156.989 45.1788 156.968 45.4555C156.984 45.9277 156.894 46.3973 156.705 46.8297C156.516 47.262 156.233 47.6459 155.878 47.953C156.633 48.6727 157.052 49.35 157.136 49.985C157.141 50.0406 157.136 50.0967 157.12 50.1502C157.104 50.2037 157.078 50.2534 157.043 50.2967C157.008 50.3399 156.964 50.3758 156.916 50.4022C156.867 50.4286 156.813 50.4451 156.758 50.4506C156.703 50.4562 156.648 50.4507 156.595 50.4346C156.542 50.4184 156.492 50.3919 156.45 50.3566C156.407 50.3212 156.371 50.2776 156.345 50.2284C156.319 50.1792 156.303 50.1252 156.297 50.0696C156.255 49.6886 156.004 49.096 154.955 48.1647C154.91 48.1129 154.876 48.0525 154.854 47.9871C154.833 47.9216 154.824 47.8525 154.83 47.7837C154.83 47.7131 154.849 47.6439 154.886 47.584C154.923 47.5242 154.976 47.476 155.039 47.4451C155.386 47.2237 155.671 46.9175 155.869 46.5549C156.067 46.1922 156.171 45.7849 156.171 45.3708C156.171 44.9898 156.046 44.7782 155.962 44.7358C155.752 44.6088 154.955 45.2861 154.452 45.7518C153.94 46.2648 153.362 46.7062 152.733 47.0641C151.936 47.4874 151.936 47.8684 152.146 49.0537C152.188 49.3077 152.23 49.604 152.272 49.9426C152.325 51.3761 152.213 52.811 151.936 54.2181L158.645 55.6151C159.065 55.6997 159.777 54.6414 160.113 53.5831C160.482 52.6982 160.902 51.8359 161.371 51.0009C161.398 50.9509 161.435 50.9068 161.48 50.8712C161.524 50.8356 161.575 50.8092 161.63 50.7935C161.684 50.7778 161.741 50.7731 161.798 50.7796C161.854 50.7861 161.908 50.8038 161.958 50.8316C162.007 50.8594 162.051 50.8968 162.086 50.9416C162.122 50.9864 162.148 51.0378 162.163 51.0928C162.179 51.1479 162.184 51.2055 162.177 51.2623C162.171 51.3192 162.153 51.3742 162.126 51.4242C161.684 52.2027 161.292 53.0086 160.952 53.8371C160.91 53.9218 160.071 56.4617 158.729 56.4617C158.616 56.4595 158.503 56.4737 158.394 56.504Z" fill="#092C4C"/>
<path d="M114.085 93.5865C113.965 93.5786 113.852 93.527 113.767 93.4413C113.682 93.3556 113.631 93.2418 113.623 93.1209C113.791 90.835 115.552 81.3103 115.636 80.887C115.658 80.7747 115.724 80.676 115.818 80.6125C115.912 80.549 116.028 80.5259 116.139 80.5484C116.25 80.5708 116.348 80.6369 116.411 80.7322C116.474 80.8275 116.497 80.9441 116.475 81.0563C116.475 81.1833 114.63 90.962 114.504 93.2055C114.493 93.3103 114.445 93.4074 114.367 93.4779C114.29 93.5483 114.189 93.5871 114.085 93.5865Z" fill="#092C4C"/>
<path d="M136.644 120.001L101.086 104.042C99.2343 103.308 97.7327 101.884 96.8902 100.065C96.0477 98.2453 95.9285 96.1692 96.557 94.2638C97.1622 92.4398 98.4117 90.9048 100.067 89.9521C101.722 88.9994 103.667 88.6958 105.53 89.0993L142.682 97.1423L136.644 120.001Z" fill="#FF4B75"/>
<path d="M142.598 97.5657L106.746 89.819C106.691 89.8079 106.639 89.7859 106.592 89.7544C106.546 89.7228 106.506 89.6823 106.474 89.6351C106.443 89.588 106.422 89.5351 106.411 89.4795C106.4 89.4238 106.4 89.3666 106.411 89.311C106.422 89.2554 106.444 89.2026 106.475 89.1555C106.506 89.1084 106.546 89.0679 106.593 89.0365C106.64 89.005 106.692 88.9832 106.747 88.9722C106.802 88.9612 106.859 88.9612 106.914 88.9724L142.766 96.719C142.821 96.7291 142.874 96.7504 142.921 96.7816C142.969 96.8129 143.009 96.8535 143.04 96.9009C143.072 96.9484 143.093 97.0017 143.104 97.0577C143.114 97.1138 143.113 97.1714 143.101 97.227C143.081 97.3241 143.029 97.4111 142.952 97.473C142.875 97.5349 142.78 97.5677 142.682 97.5657H142.598Z" fill="#092C4C"/>
<path d="M249.805 165.643H99.0688C98.9631 165.643 98.8618 165.601 98.7871 165.526C98.7124 165.45 98.6704 165.348 98.6704 165.241C98.6704 165.135 98.7124 165.032 98.7871 164.957C98.8618 164.881 98.9631 164.839 99.0688 164.839H249.846C249.9 164.836 249.953 164.844 250.002 164.863C250.052 164.883 250.097 164.912 250.135 164.95C250.172 164.988 250.202 165.034 250.221 165.084C250.24 165.134 250.248 165.188 250.245 165.241C250.242 165.297 250.229 165.351 250.205 165.402C250.181 165.452 250.148 165.497 250.107 165.534C250.066 165.572 250.019 165.601 249.967 165.619C249.915 165.638 249.86 165.646 249.805 165.643Z" fill="#092C4C"/>
<path d="M239.359 96.029C239.359 96.029 240.928 86.7584 247.112 86.3859C251.268 86.1065 251.037 89.6454 248.819 91.0889C246.601 92.5325 239.959 95.0808 239.322 99.3394C239.359 97.6588 239.359 96.029 239.359 96.029Z" fill="#092C4C"/>
<path d="M239.359 78.0423C239.359 78.0423 235.204 64.8137 229.677 68.1664C227.874 69.3771 228.381 73.0133 232.675 74.2706C236.831 75.4813 239.384 79.3969 239.384 82.9824L239.359 78.0423Z" fill="#092C4C"/>
<path d="M239.359 63.0866C239.359 63.0866 240.835 53.1175 252.777 49.5405C257.901 48.2366 260.208 49.1679 261.361 50.2855C262.514 51.403 262.564 55.8775 254.991 58.3962C247.419 60.915 239.322 65 239.322 70.8206C239.359 67.8404 239.359 63.0866 239.359 63.0866Z" fill="#092C4C"/>
<path d="M239.359 61.8293C239.359 61.8293 239.359 45.6629 227.619 43.6267C223.744 43.2542 221.48 45.9592 224.205 49.079C226.931 52.1989 239.359 55.4923 239.359 61.8293Z" fill="#092C4C"/>
<path d="M251.222 164.924H227.497L223.807 125.458H254.912L251.222 164.924Z" fill="#092C4C"/>
<path d="M255.419 137.247H223.253C223.131 137.247 223.014 137.198 222.927 137.111C222.841 137.024 222.792 136.905 222.792 136.782C222.792 136.658 222.841 136.54 222.927 136.452C223.014 136.365 223.131 136.316 223.253 136.316H255.419C255.541 136.316 255.659 136.365 255.745 136.452C255.832 136.54 255.88 136.658 255.88 136.782C255.88 136.905 255.832 137.024 255.745 137.111C255.659 137.198 255.541 137.247 255.419 137.247Z" fill="#092C4C"/>
<path d="M239.359 126.482C239.297 126.489 239.234 126.482 239.175 126.461C239.116 126.44 239.063 126.405 239.019 126.361C238.974 126.316 238.941 126.262 238.92 126.203C238.899 126.143 238.891 126.08 238.898 126.017V59.4545C238.898 59.331 238.947 59.2126 239.033 59.1253C239.12 59.0379 239.237 58.9889 239.359 58.9889C239.482 58.9889 239.599 59.0379 239.686 59.1253C239.772 59.2126 239.821 59.331 239.821 59.4545V126.017C239.821 126.14 239.772 126.259 239.686 126.346C239.599 126.433 239.482 126.482 239.359 126.482Z" fill="#092C4C"/>
</g>
</svg>
