<?xml version="1.0" encoding="utf-8"?>
<!-- Generator: Adobe Illustrator 25.2.1, SVG Export Plug-In . SVG Version: 6.00 Build 0)  -->
<svg version="1.1" id="Layer_1" xmlns="http://www.w3.org/2000/svg" xmlns:xlink="http://www.w3.org/1999/xlink" x="0px" y="0px"
	 viewBox="0 0 139.3 138.4" style="enable-background:new 0 0 139.3 138.4;" xml:space="preserve">
<style type="text/css">
	.st0{fill:#FF4B75;}
	.st1{fill:#FFFFFF;}
</style>
<path class="st0" d="M8.4,126.3c-0.4-0.4-0.8-1-1-1.5C7.1,124.2,7,123.6,7,123c0-0.6,0.1-1.2,0.4-1.8c0.2-0.6,0.6-1.1,1-1.5
	l42.5-42.5c1.8-1.8,4.8-1.8,6.6,0c0,0,0,0,0,0c1.8,1.8,1.8,4.8,0,6.6L15,126.3c-0.4,0.4-1,0.8-1.5,1c-1.1,0.5-2.4,0.5-3.6,0
	C9.3,127.1,8.8,126.7,8.4,126.3z"/>
<path class="st0" d="M25.5,126c-0.4-0.4-0.8-0.9-1-1.5c-0.5-1.1-0.5-2.4,0-3.6c0.2-0.6,0.6-1.1,1-1.5l31.1-31.1c0.4-0.4,1-0.8,1.5-1
	c0.6-0.2,1.2-0.4,1.8-0.4c0.6,0,1.2,0.1,1.8,0.4c1.1,0.5,2.1,1.4,2.5,2.5c0.7,1.7,0.3,3.8-1,5.1L32.1,126c-0.9,0.9-2.1,1.4-3.3,1.4
	C27.6,127.4,26.4,126.9,25.5,126z"/>
<path class="st0" d="M41.6,126.5c-0.4-0.4-0.8-1-1-1.5c-0.2-0.6-0.4-1.2-0.4-1.8c0-0.6,0.1-1.2,0.4-1.8c0.2-0.6,0.6-1.1,1-1.5
	l21.3-21.3c0.4-0.4,0.9-0.8,1.5-1c1.1-0.5,2.4-0.5,3.6,0c0.6,0.2,1.1,0.6,1.5,1c0.4,0.4,0.8,0.9,1,1.5c0.2,0.6,0.3,1.2,0.3,1.8
	c0,0.6-0.1,1.2-0.3,1.8c-0.2,0.6-0.6,1.1-1,1.5l-21.3,21.3C46.4,128.3,43.4,128.3,41.6,126.5z"/>
<path class="st0" d="M58.6,126.3c-0.9-0.9-1.4-2.1-1.4-3.3c0-0.6,0.1-1.2,0.4-1.8c0.2-0.6,0.6-1.1,1-1.5l11.4-11.4
	c0.4-0.4,0.9-0.8,1.5-1c0.6-0.2,1.2-0.3,1.8-0.3c1.2,0,2.4,0.5,3.3,1.4c1.8,1.8,1.8,4.8,0,6.6l-11.4,11.4c-0.4,0.4-1,0.8-1.5,1
	c-0.6,0.2-1.2,0.4-1.8,0.4c-0.6,0-1.2-0.1-1.8-0.4C59.6,127.1,59.1,126.7,58.6,126.3z"/>
<path class="st1" d="M63.7,82c6.4,13.1,16.2,26.1,27.7,35.1c5.8,4.5,12.5,7.7,19.6,9.4c6.8,1.5,12.8,0.2,18.1-4.3
	c2.1-1.7,4.9-4.1,3.5-8.2c-0.5-1.6-1.3-3.1-2.2-4.5c-3.4-4.7-7.3-9-11.5-13c-1-0.9-2.2-1.6-3.6-2c-2.1-0.5-4.2,0.7-6,2
	c-3.3,2.5-5.1,5.3-9.1,4.3c-2.2-0.6-4.3-1.5-6.3-2.6C82.4,90.8,76,79.1,73.7,65.6c-0.8-4.5-2.3-9.1,1.2-12c1.8-1.5,3.9-2.7,6.1-3.4
	c2.3-0.9,5.1-2.1,5.8-4.4c0.6-2,0-5.4-0.8-7.4c-1.5-4.3-2.3-8.2-4.2-12.3c-0.5-1.2-1.5-3.9-2.5-4.8c-1.5-1.3-4.2-1.4-6.1-1.2
	c-6.3,0.6-11.6,3.1-14.6,8.7s-4.2,15-3.6,21.4c0.8,7.4,2.2,14.6,4.3,21.8C60.6,76,61.3,77.1,63.7,82z"/>
</svg>
