<svg id="Layer_1" data-name="Layer 1" xmlns="http://www.w3.org/2000/svg" viewBox="0 0 361.73 114.59"><defs><style>.cls-1{fill:#ff4b75;}.cls-2{fill:#fff;}</style></defs><path class="cls-1" d="M21.31,121.39a4.26,4.26,0,0,1-1-1.44,4.45,4.45,0,0,1,0-3.41,4.26,4.26,0,0,1,1-1.44L61.87,74.53A4.46,4.46,0,0,1,65,73.23a4.34,4.34,0,0,1,1.7.34A4.36,4.36,0,0,1,69.13,76a4.45,4.45,0,0,1,0,3.41,4.38,4.38,0,0,1-1,1.44L27.6,121.39a4.26,4.26,0,0,1-1.44,1,4.45,4.45,0,0,1-3.41,0A4.26,4.26,0,0,1,21.31,121.39Z" transform="translate(-20 -20)"/><path class="cls-1" d="M37.65,121.15a4.53,4.53,0,0,1-1-1.45,4.45,4.45,0,0,1,0-3.41,4.38,4.38,0,0,1,1-1.44L67.34,85.16a4.73,4.73,0,0,1,1.45-1,4.45,4.45,0,0,1,3.41,0A4.46,4.46,0,0,1,75,88.31a4.52,4.52,0,0,1-.34,1.7,4.73,4.73,0,0,1-1,1.45L44,121.15a4.53,4.53,0,0,1-1.45,1,4.42,4.42,0,0,1-3.4,0A4.53,4.53,0,0,1,37.65,121.15Z" transform="translate(-20 -20)"/><path class="cls-1" d="M53,121.59a4.42,4.42,0,0,1-1.31-3.15,4.52,4.52,0,0,1,.34-1.7,4.57,4.57,0,0,1,1-1.44L73.32,95a4.41,4.41,0,0,1,1.44-1,4.45,4.45,0,0,1,3.41,0,4.41,4.41,0,0,1,1.44,1,4.26,4.26,0,0,1,1,1.44,4.45,4.45,0,0,1,0,3.41,4.4,4.4,0,0,1-1,1.45L59.27,121.59a4.45,4.45,0,0,1-4.86,1A4.41,4.41,0,0,1,53,121.59Z" transform="translate(-20 -20)"/><path class="cls-1" d="M69.24,121.41a4.42,4.42,0,0,1-1.31-3.15,4.52,4.52,0,0,1,.34-1.7,4.57,4.57,0,0,1,1-1.44l10.9-10.9a4.26,4.26,0,0,1,1.44-1,4.45,4.45,0,0,1,3.41,0,4.45,4.45,0,0,1,2.41,2.41,4.46,4.46,0,0,1-1,4.85l-10.9,10.9a4.4,4.4,0,0,1-1.45,1,4.52,4.52,0,0,1-1.7.34,4.57,4.57,0,0,1-1.71-.34A4.26,4.26,0,0,1,69.24,121.41Z" transform="translate(-20 -20)"/><path class="cls-2" d="M74.32,79.11c6.07,12.44,15.36,24.85,26.27,33.35a49,49,0,0,0,18.62,9c6.44,1.39,12.11.18,17.14-4.12,2-1.66,4.63-3.93,3.29-7.82a15.49,15.49,0,0,0-2.11-4.25,95.55,95.55,0,0,0-10.9-12.36A8.12,8.12,0,0,0,123.24,91c-2-.44-4,.69-5.67,1.88-3.14,2.36-4.8,5-8.66,4.12a23.86,23.86,0,0,1-6-2.49C92.06,87.41,86,76.27,83.83,63.4c-.74-4.28-2.16-8.63,1.13-11.46a18.59,18.59,0,0,1,5.8-3.27c2.18-.83,4.8-2,5.49-4.22.61-1.9,0-5.14-.72-7-1.46-4-2.2-7.8-4-11.68-.52-1.16-1.44-3.74-2.4-4.58-1.41-1.21-3.94-1.28-5.8-1.12-6,.53-11,3-13.85,8.28S65.6,42.65,66.14,48.66a126,126,0,0,0,4.11,20.72C71.44,73.34,72,74.43,74.32,79.11Z" transform="translate(-20 -20)"/><path class="cls-2" d="M177.86,81A4.17,4.17,0,0,1,181,82.18a4.26,4.26,0,0,1,1.23,3.16V115.8A4.44,4.44,0,0,1,181,119a4.54,4.54,0,0,1-6.19,0,4.43,4.43,0,0,1-1.22-3.17v-3.53l1.58.65a4.22,4.22,0,0,1-1,2.3,14.31,14.31,0,0,1-2.73,2.6,17.94,17.94,0,0,1-4.11,2.23,14.33,14.33,0,0,1-5,.86,16.64,16.64,0,0,1-9-2.52,18.62,18.62,0,0,1-6.41-7.06,24.51,24.51,0,0,1,0-20.73,18.21,18.21,0,0,1,6.34-7.06A15.76,15.76,0,0,1,161.94,81a16.49,16.49,0,0,1,5.69.94,16.32,16.32,0,0,1,4.47,2.37,12.3,12.3,0,0,1,3,3,4.39,4.39,0,0,1,1.08,2.44l-2.59.94V85.34a4.17,4.17,0,0,1,1.22-3.09A4.07,4.07,0,0,1,177.86,81Zm-14.55,32a9.84,9.84,0,0,0,5.55-1.58,10.56,10.56,0,0,0,3.67-4.32,14.51,14.51,0,0,0,0-12.31,10.43,10.43,0,0,0-3.67-4.32,9.77,9.77,0,0,0-5.55-1.59,9.6,9.6,0,0,0-5.47,1.59,10.89,10.89,0,0,0-3.74,4.32,15.22,15.22,0,0,0,0,12.31,11,11,0,0,0,3.74,4.32A9.67,9.67,0,0,0,163.31,113Zm37.59,2.81a4.3,4.3,0,0,1-1.3,3.17,4.45,4.45,0,0,1-6.12,0,4.48,4.48,0,0,1-1.22-3.17V71.3a4.21,4.21,0,0,1,1.22-3.09,4.3,4.3,0,0,1,3.17-1.3,3.85,3.85,0,0,1,3,1.3,4.21,4.21,0,0,1,1.22,3.09Zm19.41,0A4.34,4.34,0,0,1,219,119a4.23,4.23,0,0,1-3.1,1.22,4.13,4.13,0,0,1-3-1.22,4.43,4.43,0,0,1-1.22-3.17V71.3a4.17,4.17,0,0,1,1.22-3.09,4.28,4.28,0,0,1,3.17-1.3,3.83,3.83,0,0,1,3,1.3,4.17,4.17,0,0,1,1.23,3.09Z" transform="translate(-20 -20)"/><path class="cls-1" d="M246,81a15.68,15.68,0,0,1,5.54.94,15.38,15.38,0,0,1,4.32,2.37,12.65,12.65,0,0,1,2.88,3,4.39,4.39,0,0,1,1.08,2.44l-1.87.94V85.34a4.21,4.21,0,0,1,1.22-3.09,4.07,4.07,0,0,1,3.1-1.3,4.16,4.16,0,0,1,3.09,1.23,4.26,4.26,0,0,1,1.23,3.16v32q0,6.27-2.74,10a14.75,14.75,0,0,1-7.05,5.47,25.62,25.62,0,0,1-9.44,1.73,25.34,25.34,0,0,1-3.74-.36c-1.54-.24-3-.53-4.39-.86a25,25,0,0,1-3.17-.94,6.22,6.22,0,0,1-3-2.38,3.49,3.49,0,0,1-.29-3,4.67,4.67,0,0,1,2.09-2.88,3.65,3.65,0,0,1,3-.14c.48.14,1.27.43,2.38.86a30.46,30.46,0,0,0,3.6,1.16,13.18,13.18,0,0,0,3.52.57q5.4,0,8-2.16a7.37,7.37,0,0,0,2.59-6v-6.27l.86.65a4.15,4.15,0,0,1-1,2.3,12.45,12.45,0,0,1-2.66,2.6,16.58,16.58,0,0,1-4,2.23,14,14,0,0,1-4.9.86,17.24,17.24,0,0,1-9.21-2.52,18.33,18.33,0,0,1-6.48-7.06,23.76,23.76,0,0,1,0-20.73A17.91,17.91,0,0,1,237,83.54,16.32,16.32,0,0,1,246,81Zm1.36,7.92a10.18,10.18,0,0,0-5.68,1.59,10.62,10.62,0,0,0-3.82,4.32,14.51,14.51,0,0,0,0,12.31,10.75,10.75,0,0,0,3.82,4.32,10.25,10.25,0,0,0,5.68,1.58,10.4,10.4,0,0,0,5.76-1.58,10.75,10.75,0,0,0,3.82-4.32,14.51,14.51,0,0,0,0-12.31,10.62,10.62,0,0,0-3.82-4.32A10.33,10.33,0,0,0,247.34,88.87Zm56.6-7.2A4,4,0,0,1,307,83a4.17,4.17,0,0,1,1.23,3.09v18.29q0,7.64-4.25,12.1t-12.24,4.46q-8,0-12.24-4.46t-4.18-12.1V86.06A4.17,4.17,0,0,1,276.58,83a4.33,4.33,0,0,1,6.19,0A4.21,4.21,0,0,1,284,86.06v18.29q0,4.4,1.95,6.55c1.29,1.39,3.24,2.09,5.83,2.09s4.61-.7,5.9-2.09,1.95-3.62,1.95-6.55V86.06A4.17,4.17,0,0,1,300.84,83,4.07,4.07,0,0,1,303.94,81.67Zm18,38.52a4.23,4.23,0,0,1-3.1-1.22,4.48,4.48,0,0,1-1.22-3.17V86.06A4.21,4.21,0,0,1,318.83,83a4.35,4.35,0,0,1,6.2,0,4.21,4.21,0,0,1,1.22,3.09v6.77l-.5-4.82a11.19,11.19,0,0,1,2-3,12,12,0,0,1,2.88-2.23A12.5,12.5,0,0,1,334,81.38a15.81,15.81,0,0,1,3.6-.43,5.35,5.35,0,0,1,3.6,1.23,3.62,3.62,0,0,1,1.51,2.88,4.37,4.37,0,0,1-1.23,3.45,4.1,4.1,0,0,1-2.66,1,6.33,6.33,0,0,1-2.52-.5,5.84,5.84,0,0,0-2.52-.51,6.22,6.22,0,0,0-2.66.65A7.22,7.22,0,0,0,328.7,91a11.12,11.12,0,0,0-1.8,3.24,13.78,13.78,0,0,0-.65,4.47V115.8A4.48,4.48,0,0,1,325,119,4.23,4.23,0,0,1,321.93,120.19Zm55.48-38.52a4.07,4.07,0,0,1,3.1,1.3,4.21,4.21,0,0,1,1.22,3.09v18.29q0,7.64-4.25,12.1t-12.24,4.46q-8,0-12.24-4.46t-4.17-12.1V86.06A4.21,4.21,0,0,1,350.05,83a4.33,4.33,0,0,1,6.19,0,4.17,4.17,0,0,1,1.23,3.09v18.29q0,4.4,1.94,6.55t5.83,2.09q4,0,5.91-2.09t1.94-6.55V86.06A4.17,4.17,0,0,1,374.32,83,4,4,0,0,1,377.41,81.67Z" transform="translate(-20 -20)"/></svg>