<svg id="Layer_1" data-name="Layer 1" xmlns="http://www.w3.org/2000/svg" viewBox="0 0 144 123.88"><defs><style>.cls-1{fill:#ff4b75;}.cls-2{fill:#092c4c;}</style></defs><path class="cls-1" d="M6.57,139.07a5.37,5.37,0,0,1-1.16-5.85,5.21,5.21,0,0,1,1.16-1.73L55.24,82.65A5.36,5.36,0,0,1,57,81.49a5.27,5.27,0,0,1,2-.41,5.36,5.36,0,0,1,2,.41,5.43,5.43,0,0,1,1.73,1.16h0A5.35,5.35,0,0,1,64,88.49a5.26,5.26,0,0,1-1.16,1.74L14.12,139.07a5.37,5.37,0,0,1-1.73,1.16,5.31,5.31,0,0,1-4.09,0,5.37,5.37,0,0,1-1.73-1.16Z" transform="translate(-5 -17)"/><path class="cls-1" d="M26.18,138.77A5.52,5.52,0,0,1,25,137a5.45,5.45,0,0,1,0-4.1,5.52,5.52,0,0,1,1.16-1.74L61.81,95.45a5.46,5.46,0,0,1,1.73-1.17,5.36,5.36,0,0,1,2.05-.41,5.27,5.27,0,0,1,2,.41,5.39,5.39,0,0,1,1.74,1.17h0a5.41,5.41,0,0,1,1.16,5.84A5.52,5.52,0,0,1,69.37,103L33.74,138.77A5.43,5.43,0,0,1,32,139.93a5.36,5.36,0,0,1-2,.41,5.27,5.27,0,0,1-2-.41,5.36,5.36,0,0,1-1.74-1.16Z" transform="translate(-5 -17)"/><path class="cls-1" d="M44.56,139.3a5.37,5.37,0,0,1-1.16-1.73,5.48,5.48,0,0,1,0-4.11,5.37,5.37,0,0,1,1.16-1.73L69,107.23a5.43,5.43,0,0,1,1.73-1.16,5.36,5.36,0,0,1,5.83,1.16,5.37,5.37,0,0,1,0,7.58L52.12,139.3a5.32,5.32,0,0,1-7.56,0Z" transform="translate(-5 -17)"/><path class="cls-1" d="M64.09,139.09a5.37,5.37,0,0,1,0-7.58l13.08-13.12a5.4,5.4,0,0,1,1.73-1.17,5.43,5.43,0,0,1,4.09,0,5.4,5.4,0,0,1,1.73,1.17h0a5.37,5.37,0,0,1,0,7.58L71.64,139.09a5.21,5.21,0,0,1-1.73,1.16,5.31,5.31,0,0,1-4.09,0,5.21,5.21,0,0,1-1.73-1.16Z" transform="translate(-5 -17)"/><path class="cls-2" d="M70.18,88.16c7.29,15,18.43,29.91,31.53,40.16a58.92,58.92,0,0,0,22.34,10.82c7.73,1.67,14.54.21,20.57-5,2.35-2,5.55-4.74,3.95-9.42a19,19,0,0,0-2.53-5.12A115,115,0,0,0,133,104.76a9.69,9.69,0,0,0-4.07-2.23c-2.39-.53-4.84.83-6.8,2.26-3.78,2.84-5.76,6-10.4,5a29.1,29.1,0,0,1-7.2-3c-13-8.59-20.26-22-22.9-37.5C80.71,64.1,79,58.86,83,55.45a22.42,22.42,0,0,1,7-3.93c2.62-1,5.76-2.41,6.59-5.09.73-2.28,0-6.19-.87-8.44-1.74-4.83-2.64-9.39-4.74-14-.62-1.41-1.72-4.51-2.88-5.52-1.68-1.46-4.72-1.53-7-1.34-7.2.63-13.17,3.58-16.62,10S59.71,44.27,60.36,51.5A152.23,152.23,0,0,0,65.3,76.44C66.72,81.22,67.44,82.52,70.18,88.16Z" transform="translate(-5 -17)"/></svg>