<svg id="Layer_1" data-name="Layer 1" xmlns="http://www.w3.org/2000/svg" viewBox="0 0 144 122.99"><defs><style>.cls-1{fill:#092c4c;}.cls-2{fill:#ff4b75;}</style></defs><path class="cls-1" d="M9.57,139.2a5.31,5.31,0,0,1,0-7.53L58.24,83.14A5.5,5.5,0,0,1,60,82a5.08,5.08,0,0,1,2-.41A5.46,5.46,0,0,1,64,82a6.09,6.09,0,0,1,3,2.87,5.31,5.31,0,0,1-1.16,5.81L17.12,139.2a5.21,5.21,0,0,1-1.73,1.16,5.46,5.46,0,0,1-4.09,0A5.21,5.21,0,0,1,9.57,139.2Z" transform="translate(-8 -18)"/><path class="cls-1" d="M29.18,138.9A5.5,5.5,0,0,1,28,137.18a5.32,5.32,0,0,1,1.16-5.81L64.81,95.86a5.34,5.34,0,0,1,3.73-1.57,5.08,5.08,0,0,1,2,.41,5.36,5.36,0,0,1,1.74,1.16,5.31,5.31,0,0,1,0,7.53L36.74,138.9A5.36,5.36,0,0,1,35,140.06a5.46,5.46,0,0,1-2,.41,5.08,5.08,0,0,1-2-.41A5.29,5.29,0,0,1,29.18,138.9Z" transform="translate(-8 -18)"/><path class="cls-1" d="M47.56,139.44a5.31,5.31,0,0,1,0-7.5l0,0L72,107.57a5.48,5.48,0,0,1,1.73-1.16,5.33,5.33,0,0,1,5.85,8.67l0,0L55.12,139.44a5.37,5.37,0,0,1-7.56,0Z" transform="translate(-8 -18)"/><path class="cls-1" d="M67.09,139.22a5.31,5.31,0,0,1,0-7.51l0,0,13.08-13a5.37,5.37,0,0,1,7.55,0,5.48,5.48,0,0,1,1.16,1.73,5.31,5.31,0,0,1-1.16,5.81l-13.08,13a5.21,5.21,0,0,1-1.73,1.16,5.3,5.3,0,0,1-5.82-1.17Z" transform="translate(-8 -18)"/><path class="cls-2" d="M73.25,88.61c7.29,14.85,18.42,29.65,31.51,39.8a58.74,58.74,0,0,0,22.32,10.73c7.72,1.66,14.52.21,20.55-4.91,2.34-2,5.54-4.7,3.94-9.34a18.52,18.52,0,0,0-2.53-5.07,113.44,113.44,0,0,0-13-14.75,9.63,9.63,0,0,0-4.06-2.22c-2.39-.52-4.83.78-6.8,2.24-3.77,2.82-5.75,6-10.38,4.92a28.88,28.88,0,0,1-7.19-3c-13-8.59-20.24-21.89-22.87-37.25-.88-5.1-2.59-10.3,1.35-13.67a22,22,0,0,1,7-3.9c2.61-1,5.75-2.39,6.57-5,.74-2.27,0-6.14-.86-8.37C97,34,96.05,29.5,94,24.88c-.63-1.4-1.72-4.47-2.88-5.47-1.65-1.45-4.72-1.52-7-1.33C76.94,18.71,71,21.63,67.53,28s-4.72,17-4.12,24.2a149.87,149.87,0,0,0,4.94,24.72C69.8,81.73,70.52,83.05,73.25,88.61Z" transform="translate(-8 -18)"/></svg>