<svg width="61" height="56" viewBox="0 0 61 56" fill="none" xmlns="http://www.w3.org/2000/svg">
<path d="M2.09891 55.9998C2.7851 55.9998 3.34138 55.4436 3.34138 54.7574C3.34138 54.0712 2.7851 53.5149 2.09891 53.5149C1.41272 53.5149 0.856445 54.0712 0.856445 54.7574C0.856445 55.4436 1.41272 55.9998 2.09891 55.9998Z" fill="#FF4B75"/>
<path d="M2.09891 45.262C2.7851 45.262 3.34138 44.7058 3.34138 44.0196C3.34138 43.3334 2.7851 42.7771 2.09891 42.7771C1.41272 42.7771 0.856445 43.3334 0.856445 44.0196C0.856445 44.7058 1.41272 45.262 2.09891 45.262Z" fill="#FF4B75"/>
<path d="M2.09891 34.5228C2.7851 34.5228 3.34138 33.9665 3.34138 33.2803C3.34138 32.5941 2.7851 32.0378 2.09891 32.0378C1.41272 32.0378 0.856445 32.5941 0.856445 33.2803C0.856445 33.9665 1.41272 34.5228 2.09891 34.5228Z" fill="#FF4B75"/>
<path d="M2.09891 23.8731C2.7851 23.8731 3.34138 23.3168 3.34138 22.6306C3.34138 21.9445 2.7851 21.3882 2.09891 21.3882C1.41272 21.3882 0.856445 21.9445 0.856445 22.6306C0.856445 23.3168 1.41272 23.8731 2.09891 23.8731Z" fill="#FF4B75"/>
<path d="M2.09891 13.1351C2.7851 13.1351 3.34138 12.5788 3.34138 11.8926C3.34138 11.2064 2.7851 10.6501 2.09891 10.6501C1.41272 10.6501 0.856445 11.2064 0.856445 11.8926C0.856445 12.5788 1.41272 13.1351 2.09891 13.1351Z" fill="#FF4B75"/>
<path d="M2.09989 2.48566C2.78608 2.48566 3.34235 1.92939 3.34235 1.2432C3.34235 0.557003 2.78608 0.000732422 2.09989 0.000732422C1.41369 0.000732422 0.857422 0.557003 0.857422 1.2432C0.857422 1.92939 1.41369 2.48566 2.09989 2.48566Z" fill="#FF4B75"/>
<path d="M59.6087 55.9991C60.2949 55.9991 60.8511 55.4428 60.8511 54.7566C60.8511 54.0704 60.2949 53.5142 59.6087 53.5142C58.9225 53.5142 58.3662 54.0704 58.3662 54.7566C58.3662 55.4428 58.9225 55.9991 59.6087 55.9991Z" fill="#FF4B75"/>
<path d="M59.6087 45.2613C60.2949 45.2613 60.8511 44.705 60.8511 44.0188C60.8511 43.3326 60.2949 42.7764 59.6087 42.7764C58.9225 42.7764 58.3662 43.3326 58.3662 44.0188C58.3662 44.705 58.9225 45.2613 59.6087 45.2613Z" fill="#FF4B75"/>
<path d="M59.6087 34.522C60.2949 34.522 60.8511 33.9658 60.8511 33.2796C60.8511 32.5934 60.2949 32.0371 59.6087 32.0371C58.9225 32.0371 58.3662 32.5934 58.3662 33.2796C58.3662 33.9658 58.9225 34.522 59.6087 34.522Z" fill="#FF4B75"/>
<path d="M59.6087 23.8724C60.2949 23.8724 60.8511 23.3161 60.8511 22.6299C60.8511 21.9437 60.2949 21.3875 59.6087 21.3875C58.9225 21.3875 58.3662 21.9437 58.3662 22.6299C58.3662 23.3161 58.9225 23.8724 59.6087 23.8724Z" fill="#FF4B75"/>
<path d="M59.6087 13.1343C60.2949 13.1343 60.8511 12.5781 60.8511 11.8919C60.8511 11.2057 60.2949 10.6494 59.6087 10.6494C58.9225 10.6494 58.3662 11.2057 58.3662 11.8919C58.3662 12.5781 58.9225 13.1343 59.6087 13.1343Z" fill="#FF4B75"/>
<path d="M59.6087 2.48493C60.2949 2.48493 60.8511 1.92866 60.8511 1.24246C60.8511 0.55627 60.2949 0 59.6087 0C58.9225 0 58.3662 0.55627 58.3662 1.24246C58.3662 1.92866 58.9225 2.48493 59.6087 2.48493Z" fill="#FF4B75"/>
<path d="M48.1604 55.9991C48.8466 55.9991 49.4029 55.4428 49.4029 54.7566C49.4029 54.0704 48.8466 53.5142 48.1604 53.5142C47.4742 53.5142 46.918 54.0704 46.918 54.7566C46.918 55.4428 47.4742 55.9991 48.1604 55.9991Z" fill="#FF4B75"/>
<path d="M48.1604 45.2613C48.8466 45.2613 49.4029 44.705 49.4029 44.0188C49.4029 43.3326 48.8466 42.7764 48.1604 42.7764C47.4742 42.7764 46.918 43.3326 46.918 44.0188C46.918 44.705 47.4742 45.2613 48.1604 45.2613Z" fill="#FF4B75"/>
<path d="M48.1604 34.522C48.8466 34.522 49.4029 33.9658 49.4029 33.2796C49.4029 32.5934 48.8466 32.0371 48.1604 32.0371C47.4742 32.0371 46.918 32.5934 46.918 33.2796C46.918 33.9658 47.4742 34.522 48.1604 34.522Z" fill="#FF4B75"/>
<path d="M48.1604 23.8724C48.8466 23.8724 49.4029 23.3161 49.4029 22.6299C49.4029 21.9437 48.8466 21.3875 48.1604 21.3875C47.4742 21.3875 46.918 21.9437 46.918 22.6299C46.918 23.3161 47.4742 23.8724 48.1604 23.8724Z" fill="#FF4B75"/>
<path d="M48.1604 13.1343C48.8466 13.1343 49.4029 12.5781 49.4029 11.8919C49.4029 11.2057 48.8466 10.6494 48.1604 10.6494C47.4742 10.6494 46.918 11.2057 46.918 11.8919C46.918 12.5781 47.4742 13.1343 48.1604 13.1343Z" fill="#FF4B75"/>
<path d="M48.1604 2.48493C48.8466 2.48493 49.4029 1.92866 49.4029 1.24246C49.4029 0.55627 48.8466 0 48.1604 0C47.4742 0 46.918 0.55627 46.918 1.24246C46.918 1.92866 47.4742 2.48493 48.1604 2.48493Z" fill="#FF4B75"/>
<path d="M36.6243 55.9991C37.3105 55.9991 37.8668 55.4428 37.8668 54.7566C37.8668 54.0704 37.3105 53.5142 36.6243 53.5142C35.9381 53.5142 35.3818 54.0704 35.3818 54.7566C35.3818 55.4428 35.9381 55.9991 36.6243 55.9991Z" fill="#FF4B75"/>
<path d="M36.6243 45.2613C37.3105 45.2613 37.8668 44.705 37.8668 44.0188C37.8668 43.3326 37.3105 42.7764 36.6243 42.7764C35.9381 42.7764 35.3818 43.3326 35.3818 44.0188C35.3818 44.705 35.9381 45.2613 36.6243 45.2613Z" fill="#FF4B75"/>
<path d="M36.6243 34.522C37.3105 34.522 37.8668 33.9658 37.8668 33.2796C37.8668 32.5934 37.3105 32.0371 36.6243 32.0371C35.9381 32.0371 35.3818 32.5934 35.3818 33.2796C35.3818 33.9658 35.9381 34.522 36.6243 34.522Z" fill="#FF4B75"/>
<path d="M36.6243 23.8724C37.3105 23.8724 37.8668 23.3161 37.8668 22.6299C37.8668 21.9437 37.3105 21.3875 36.6243 21.3875C35.9381 21.3875 35.3818 21.9437 35.3818 22.6299C35.3818 23.3161 35.9381 23.8724 36.6243 23.8724Z" fill="#FF4B75"/>
<path d="M36.6243 13.1343C37.3105 13.1343 37.8668 12.5781 37.8668 11.8919C37.8668 11.2057 37.3105 10.6494 36.6243 10.6494C35.9381 10.6494 35.3818 11.2057 35.3818 11.8919C35.3818 12.5781 35.9381 13.1343 36.6243 13.1343Z" fill="#FF4B75"/>
<path d="M36.6233 2.48493C37.3095 2.48493 37.8658 1.92866 37.8658 1.24246C37.8658 0.55627 37.3095 0 36.6233 0C35.9371 0 35.3809 0.55627 35.3809 1.24246C35.3809 1.92866 35.9371 2.48493 36.6233 2.48493Z" fill="#FF4B75"/>
<path d="M25.0872 55.9991C25.7734 55.9991 26.3297 55.4428 26.3297 54.7566C26.3297 54.0704 25.7734 53.5142 25.0872 53.5142C24.401 53.5142 23.8447 54.0704 23.8447 54.7566C23.8447 55.4428 24.401 55.9991 25.0872 55.9991Z" fill="#FF4B75"/>
<path d="M25.0872 45.2613C25.7734 45.2613 26.3297 44.705 26.3297 44.0188C26.3297 43.3326 25.7734 42.7764 25.0872 42.7764C24.401 42.7764 23.8447 43.3326 23.8447 44.0188C23.8447 44.705 24.401 45.2613 25.0872 45.2613Z" fill="#FF4B75"/>
<path d="M25.0872 34.522C25.7734 34.522 26.3297 33.9658 26.3297 33.2796C26.3297 32.5934 25.7734 32.0371 25.0872 32.0371C24.401 32.0371 23.8447 32.5934 23.8447 33.2796C23.8447 33.9658 24.401 34.522 25.0872 34.522Z" fill="#FF4B75"/>
<path d="M25.0872 23.8724C25.7734 23.8724 26.3297 23.3161 26.3297 22.6299C26.3297 21.9437 25.7734 21.3875 25.0872 21.3875C24.401 21.3875 23.8447 21.9437 23.8447 22.6299C23.8447 23.3161 24.401 23.8724 25.0872 23.8724Z" fill="#FF4B75"/>
<path d="M25.0872 13.1343C25.7734 13.1343 26.3297 12.5781 26.3297 11.8919C26.3297 11.2057 25.7734 10.6494 25.0872 10.6494C24.401 10.6494 23.8447 11.2057 23.8447 11.8919C23.8447 12.5781 24.401 13.1343 25.0872 13.1343Z" fill="#FF4B75"/>
<path d="M25.0862 2.48493C25.7724 2.48493 26.3287 1.92866 26.3287 1.24246C26.3287 0.55627 25.7724 0 25.0862 0C24.4 0 23.8438 0.55627 23.8438 1.24246C23.8438 1.92866 24.4 2.48493 25.0862 2.48493Z" fill="#FF4B75"/>
<path d="M13.5501 55.9991C14.2363 55.9991 14.7925 55.4428 14.7925 54.7566C14.7925 54.0704 14.2363 53.5142 13.5501 53.5142C12.8639 53.5142 12.3076 54.0704 12.3076 54.7566C12.3076 55.4428 12.8639 55.9991 13.5501 55.9991Z" fill="#FF4B75"/>
<path d="M13.5501 45.2613C14.2363 45.2613 14.7925 44.705 14.7925 44.0188C14.7925 43.3326 14.2363 42.7764 13.5501 42.7764C12.8639 42.7764 12.3076 43.3326 12.3076 44.0188C12.3076 44.705 12.8639 45.2613 13.5501 45.2613Z" fill="#FF4B75"/>
<path d="M13.5501 34.522C14.2363 34.522 14.7925 33.9658 14.7925 33.2796C14.7925 32.5934 14.2363 32.0371 13.5501 32.0371C12.8639 32.0371 12.3076 32.5934 12.3076 33.2796C12.3076 33.9658 12.8639 34.522 13.5501 34.522Z" fill="#FF4B75"/>
<path d="M13.5501 23.8724C14.2363 23.8724 14.7925 23.3161 14.7925 22.6299C14.7925 21.9437 14.2363 21.3875 13.5501 21.3875C12.8639 21.3875 12.3076 21.9437 12.3076 22.6299C12.3076 23.3161 12.8639 23.8724 13.5501 23.8724Z" fill="#FF4B75"/>
<path d="M13.5501 13.1343C14.2363 13.1343 14.7925 12.5781 14.7925 11.8919C14.7925 11.2057 14.2363 10.6494 13.5501 10.6494C12.8639 10.6494 12.3076 11.2057 12.3076 11.8919C12.3076 12.5781 12.8639 13.1343 13.5501 13.1343Z" fill="#FF4B75"/>
<path d="M13.5491 2.48493C14.2353 2.48493 14.7916 1.92866 14.7916 1.24246C14.7916 0.55627 14.2353 0 13.5491 0C12.8629 0 12.3066 0.55627 12.3066 1.24246C12.3066 1.92866 12.8629 2.48493 13.5491 2.48493Z" fill="#FF4B75"/>
</svg>
